<?xml version="1.0" encoding="utf-8"?>
<!-- Generator: Adobe Illustrator 21.1.0, SVG Export Plug-In . SVG Version: 6.00 Build 0)  -->
<svg version="1.1" id="圖層_1" xmlns="http://www.w3.org/2000/svg" xmlns:xlink="http://www.w3.org/1999/xlink" x="0px" y="0px"
	 viewBox="0 0 95 95" style="enable-background:new 0 0 95 95;" xml:space="preserve">
<style type="text/css">
	.st0{fill:#FFFFFF;}
</style>
<path id="bed1" class="st0" d="M22.5,70.6h-4.6V45.6h59.1v24.9h-4.6v-4.8h-50V70.6L22.5,70.6z M53.3,43.9H41.7
	c0.5-0.1,0.9-0.4,1.3-0.8l1.2-1.4c1-1.2,1-3.1,0-4.3L43,36c-0.5-0.6-1.1-0.9-1.9-0.9h-8.2c-0.7,0-1.4,0.3-1.9,0.9l-1.2,1.4
	c-1,1.2-1,3.1,0,4.3l1.2,1.4c0.3,0.4,0.8,0.7,1.3,0.8h-10V29.4c0-2.7,1.9-5,4.3-5h41.7c2.4,0,4.3,2.2,4.3,5v14.5h-10
	c0.5-0.1,0.9-0.4,1.3-0.8l1.2-1.4c1-1.2,1-3.1,0-4.3L64,36c-0.5-0.6-1.1-0.9-1.9-0.9h-8.2c-0.7,0-1.4,0.3-1.9,0.9l-1.2,1.4
	c-1,1.2-1,3.1,0,4.3l1.2,1.4C52.4,43.5,52.8,43.7,53.3,43.9L53.3,43.9z"/>
</svg>
