<?xml version="1.0" encoding="utf-8"?>
<!-- Generator: Adobe Illustrator 21.1.0, SVG Export Plug-In . SVG Version: 6.00 Build 0)  -->
<svg version="1.1" id="圖層_1" xmlns="http://www.w3.org/2000/svg" xmlns:xlink="http://www.w3.org/1999/xlink" x="0px" y="0px"
	 viewBox="0 0 95 95" style="enable-background:new 0 0 95 95;" xml:space="preserve">
<style type="text/css">
	.st0{fill:#FFFFFF;}
</style>
<g>
	<path class="st0" d="M58.4,43.2L58.4,43.2c-0.9,0-1.7-0.8-1.7-1.7v-6.9c0-0.9,0.8-1.7,1.7-1.7h12.9c0.9,0,1.7,0.8,1.7,1.7v6.9
		c0,0.9-0.8,1.7-1.7,1.7h7.4v-9.4c0-1.8-1.1-3.2-2.4-3.2H53.4c-1.3,0-2.4,1.4-2.4,3.2v9.4h5.5H58.4z"/>
	<path class="st0" d="M23.8,43.2L23.8,43.2c-0.9,0-1.7-0.8-1.7-1.7v-6.9c0-0.9,0.8-1.7,1.7-1.7h12.8c0.9,0,1.7,0.8,1.7,1.7v6.9
		c0,0.9-0.8,1.7-1.7,1.7H44v-9.4c0-0.8-0.2-1.6-0.7-2.3c-0.4-0.6-1-0.9-1.7-0.9H18.8c-1.3,0-2.4,1.4-2.4,3.2v9.4h5.5H23.8z"/>
	<polygon class="st0" points="14,64.4 16.5,64.4 16.5,64.4 16.5,60.6 43.9,60.6 43.9,64.4 46.4,64.4 46.4,44.6 14,44.6 	"/>
	<polygon class="st0" points="48.6,44.6 48.6,64.4 51.1,64.4 51.1,64.4 51.1,60.6 78.5,60.6 78.5,64.4 81,64.4 81,44.6 	"/>
</g>
</svg>
