<?xml version="1.0" encoding="utf-8"?>
<!-- Generator: Adobe Illustrator 21.1.0, SVG Export Plug-In . SVG Version: 6.00 Build 0)  -->
<svg version="1.1" id="bed3" xmlns="http://www.w3.org/2000/svg" xmlns:xlink="http://www.w3.org/1999/xlink" x="0px" y="0px"
	 viewBox="0 0 95 95" style="enable-background:new 0 0 95 95;" xml:space="preserve">
<style type="text/css">
	.st0{fill:#FFFFFF;}
</style>
<g>
	<path class="st0" d="M19,45.3c-0.3-0.1-0.6-0.3-0.8-0.5l-0.8-0.9c-0.6-0.8-0.6-1.9,0-2.7l0.8-0.9c0.3-0.3,0.7-0.5,1.2-0.6h5.1
		c0.4,0,0.9,0.2,1.2,0.6l0.8,0.9c0.6,0.8,0.6,1.9,0,2.7l-0.8,0.9c-0.2,0.2-0.5,0.4-0.8,0.5H32c-0.3-0.1-0.6-0.3-0.8-0.5l-0.8-0.9
		c-0.6-0.8-0.6-1.9,0-2.7l0.8-0.9c0.3-0.3,0.7-0.5,1.2-0.6h5.1c0.4,0,0.9,0.2,1.2,0.6l0.8,0.9c0.6,0.8,0.6,1.9,0,2.7l-0.8,0.9
		c-0.2,0.2-0.5,0.4-0.8,0.5H44v-9c0.1-1.6-1.1-3-2.7-3.1H15.5c-1.6,0.1-2.8,1.5-2.7,3.1v9L19,45.3L19,45.3z"/>
	<polygon class="st0" points="10.1,46.3 10.1,61.8 12.9,61.8 12.9,58.8 43.9,58.8 43.9,61.8 46.7,61.8 46.7,46.3 46,46.3 	"/>
	<path class="st0" d="M57.1,45.3c-0.3-0.1-0.6-0.3-0.8-0.5l-0.8-0.9c-0.6-0.8-0.6-1.9,0-2.7l0.8-0.9c0.3-0.3,0.7-0.5,1.2-0.6h5.1
		c0.4,0,0.9,0.2,1.2,0.6l0.8,0.9c0.6,0.8,0.6,1.9,0,2.7l-0.8,0.9c-0.2,0.2-0.5,0.4-0.8,0.5h7.2c-0.3-0.1-0.6-0.3-0.8-0.5l-0.8-0.9
		c-0.6-0.8-0.6-1.9,0-2.7l0.8-0.9c0.3-0.3,0.7-0.5,1.2-0.6h5.1c0.4,0,0.9,0.2,1.2,0.6l0.8,0.9c0.6,0.8,0.6,1.9,0,2.7l-0.8,0.9
		c-0.2,0.2-0.5,0.4-0.8,0.5h6.2v-9c0.1-1.6-1.1-3-2.7-3.1H53.6c-1.6,0.1-2.8,1.5-2.7,3.1v9L57.1,45.3L57.1,45.3z"/>
	<polygon class="st0" points="84.2,46.3 48.3,46.3 48.3,61.8 51.1,61.8 51.1,58.8 82.1,58.8 82.1,61.8 84.9,61.8 84.9,46.3 	"/>
</g>
</svg>
