<?xml version="1.0" encoding="utf-8"?>
<!-- Generator: Adobe Illustrator 21.1.0, SVG Export Plug-In . SVG Version: 6.00 Build 0)  -->
<svg version="1.1" id="bed4" xmlns="http://www.w3.org/2000/svg" xmlns:xlink="http://www.w3.org/1999/xlink" x="0px" y="0px"
	 viewBox="0 0 95 95" style="enable-background:new 0 0 95 95;" xml:space="preserve">
<style type="text/css">
	.st0{fill:#FFFFFF;}
</style>
<g>
	<polygon class="st0" points="20.3,46.6 22.3,46.6 22.3,46.6 22.3,43.5 44.6,43.5 44.6,46.6 46.6,46.6 46.6,30.5 20.3,30.5 	"/>
	<path class="st0" d="M56.4,29.3L56.4,29.3c-0.8,0-1.4-0.6-1.4-1.4v-5.6c0-0.8,0.6-1.4,1.4-1.4h10.4c0.8,0,1.4,0.6,1.4,1.4V28
		c0,0.8-0.6,1.4-1.4,1.4h6v-7.7c0-1.4-0.9-2.6-1.9-2.6H52.3c-1.1,0-1.9,1.2-1.9,2.6v7.7h4.4H56.4z"/>
	<path class="st0" d="M28.2,29.3L28.2,29.3c-0.8,0-1.4-0.6-1.4-1.4v-5.6c0-0.8,0.6-1.4,1.4-1.4h10.4c0.8,0,1.4,0.6,1.4,1.4V28
		c0,0.8-0.6,1.4-1.4,1.4h6v-7.7c0-0.7-0.2-1.3-0.6-1.9c-0.3-0.5-0.8-0.7-1.4-0.8H24.1c-1.1,0-1.9,1.2-1.9,2.6v7.7h4.4H28.2z"/>
	<polygon class="st0" points="48.4,30.5 48.4,46.6 50.4,46.6 50.4,46.6 50.4,43.5 72.7,43.5 72.7,46.6 74.7,46.6 74.7,30.5 	"/>
	<path class="st0" d="M66.8,58.7h6V51c0-1.4-0.9-2.6-1.9-2.6H52.3c-1.1,0-1.9,1.2-1.9,2.6v7.7h4.4h1.6v0c-0.8,0-1.4-0.6-1.4-1.4
		v-5.6c0-0.8,0.6-1.4,1.4-1.4h10.4c0.8,0,1.4,0.6,1.4,1.4v5.6C68.2,58.1,67.6,58.7,66.8,58.7z"/>
	<polygon class="st0" points="48.4,75.9 50.4,75.9 50.4,75.9 50.4,72.8 72.7,72.8 72.7,75.9 74.7,75.9 74.7,59.8 48.4,59.8 	"/>
	<polygon class="st0" points="20.3,75.9 22.3,75.9 22.3,75.9 22.3,72.8 44.6,72.8 44.6,75.9 46.6,75.9 46.6,59.8 20.3,59.8 	"/>
	<path class="st0" d="M38.7,58.7h6V51c0-0.7-0.2-1.3-0.6-1.9c-0.3-0.5-0.8-0.7-1.4-0.8H24.1c-1.1,0-1.9,1.2-1.9,2.6v7.7h4.4h1.6v0
		c-0.8,0-1.4-0.6-1.4-1.4v-5.6c0-0.8,0.6-1.4,1.4-1.4h10.4c0.8,0,1.4,0.6,1.4,1.4v5.6C40,58.1,39.4,58.7,38.7,58.7z"/>
</g>
</svg>
