<?xml version="1.0" encoding="utf-8"?>
<!-- Generator: Adobe Illustrator 21.1.0, SVG Export Plug-In . SVG Version: 6.00 Build 0)  -->
<svg version="1.1" id="圖層_1" xmlns="http://www.w3.org/2000/svg" xmlns:xlink="http://www.w3.org/1999/xlink" x="0px" y="0px"
	 viewBox="0 0 500 500" style="enable-background:new 0 0 500 500;" xml:space="preserve">
<style type="text/css">
	.st0{fill:#875855;}
</style>
<title>activities</title>
<path class="st0" d="M430.7,238.8c-8.3-4.3-17.3-5-26.3-4.1c-14.1,1.5-28.4,0.4-42.1-3.5c-4.7-1.5-9.5-2.4-14.4-2.7
	c-5.2-0.2-10.3-0.7-15.4-1.5c-13.7-2-27.4-4.3-41-6.5c-5.2-0.8-10.2-1.5-14-5.9c-3.3-3.9-3.4-4.2-1.1-9c1.4-2.9,2.6-3.4,5.6-1.7
	c6.2,3.6,10.5,2.4,14.3-3.8c9.8-16,8.2-32.5,1.2-48.9c-1.6-3.7-4.9-6.1-8.8-7.4c-10.4-3.5-19.7-0.5-28.3,5.5
	c-3.6,2.3-5.9,6.1-6.3,10.4c-4.7-2.9-9.4-4.7-14.7-3.3s-8.4,5.4-10.5,10.5c-4.8-4.9-11-7.9-14.5-13.8c-2.4-4-4.8-8-7.4-11.8
	c-12.1-17.6-26.2-33.7-41.2-48.8c-1.9-1.7-2.9-4.2-2.7-6.7c0.2-8.5-5.5-17.3-13.5-19.7c-6.6-2-10.8-1.5-12,7
	c-0.4,2.6-0.6,5.2-0.8,7.8c-0.1,1.7-0.7,2.6-2.6,3.3c-7.8,3.2-10.3,13.4-3.9,18.2c4.8,3.6,4,6.7,2.5,10.9c-0.9,2.4-1.5,5-2.2,7.4
	c-5.2,16.6-10.3,33.2-15.6,49.8c-1.1,3.6-2.4,6.9-1.5,10.7c2.4,10,5.8,19.8,10.1,29.1c6.3,14.2,13,28.1,20.1,41.9
	c0.8,1.2,0.9,2.8,0.2,4.1c-3.7,6.7-4.8,14.5-2.8,22c3.4,14.2,6.5,28.5,9.4,42.9c2,9.9,5.7,19.5,4.8,29.8c-0.2,2.3-0.6,4.6-0.7,6.9
	c-0.2,12.6,2.8,24.7,6.1,36.8c2.5,9.2,6.1,18.2,6.8,27.9c0.6,8.4,2.7,11,10.8,13.6c1.1,0.4,2.3,0.1,3.5,0.2s2.7-0.4,3.9,0.4h23.8
	c1.5-0.7,3-1.4,4.4-2.1c5-2.7,5.2-8.6,0.5-11.6c-1.1-0.7-2.3-1.3-3.6-1.8c-6.8-2.7-13.5-5.5-20.4-8.1c-1.6-0.4-2.8-1.9-2.7-3.6
	c-1-13.3-2.4-26.6-3.3-39.9c-0.7-9.8-2.2-19.4,0.2-29.4c3.2-13.1,5.4-26.4,4.1-40c-0.2-1.9,1-2.2,2.2-2.7c4.3-1.6,8.6-2.9,12.9-4.7
	c26.2-10.8,52-22.6,74.3-40.5c1.1-1,2.7-1.3,4.1-1c5.5,1.1,11.1,1.8,16.8,1.9c11.3,0.7,22.7,0.4,34-1c4.3-0.6,8.6-2.6,13-1.6
	c13.6,3.3,27.5,3.5,41.4,3.7c14.9,0.1,29.5-0.9,43.3-7.5c1.7-0.8,3.9-1,4.2-3.4C434.8,240.2,432.4,239.7,430.7,238.8z M258.3,192.1
	c3.5-5.3,3.5-11,2.6-17.1c-0.7-5.2-1.3-10.5-0.4-15.9c0.2-1.6,1-3.1,2.2-4.1c6.8-4.8,13.9-8,22.5-5.9c4,1,6.6,3.2,7.9,7
	c2.1,6.4,3.6,12.8,3.5,19.6c0.1,7.3-1.8,14.5-5.5,20.9c-1.6,2.6-3.2,3.6-6.3,1.9c-10.4-5.8-9.2-4.8-14.1,4.5
	c-1.2,2.2-2.3,2.6-4.6,1.9c-5.8-1.8-8.7-5-8.7-10C257.6,194,257.8,193,258.3,192.1z M249.1,170.3c0.4-1.7,1.3-3.2,3.1-3.7
	c0.7-0.2,1.5-0.5,1.6,0.7c0.3,6.4,2.6,12.8,0.6,19.3c-0.1,0.3-0.5,0.5-0.7,0.7c-3.5-1.4-4.9-4-4.7-7.8
	C249.1,176.5,248.3,173.4,249.1,170.3L249.1,170.3z M234.7,171.1c0.3-7.3,6.4-11,11.6-8.2c-2.6,2.8-3.9,6.5-3.7,10.3
	c0.1,7.6,0.2,15.2,1.5,22.7c0.1,1.4,0.1,2.8,0,4.2C238.8,190.4,234.2,181.5,234.7,171.1L234.7,171.1z M163,98.2
	c17.9,18.9,34.8,38,47.6,60.3c2.6,4.6,7.7,6.8,11.3,10.4c1.6,1.5,3.3,2.9,5.1,4.2c0.8,0.5,1.4,1.4,1.4,2.4c0.4,6.4,2.7,12.3,5.3,18
	c0.5,1.1,1.3,2,0,3.3c-4.3,4.4-9.3,8-14.8,10.8c-0.2-1.2-0.3-2.4-0.1-3.6c2.2-8.7-2.4-15.4-6.3-22.3c-6.8-11.8-13.7-23.5-19.6-35.8
	c-1-2.1-2.6-3.9-4.6-5.1c-5.5-3.5-9-9.1-12.6-14.3s-7-11-10.8-16.3C162.2,106.7,161.7,102.9,163,98.2z M160.6,115
	c5.7,9.1,11.1,17.8,18,25.4c2.2,2.4,4.1,4.9,7,6.4c1.2,0.6,1.6,1.8,2.1,2.9c7.5,15,16.3,29.4,24.3,44.2c0.5,0.9,1.2,1.7,0.9,2.7
	c-1.3,6.1-0.5,12.3-0.6,18.5c-0.1,5-3.1,7.5-7.2,9.1c-7.9,3-15.9,1.4-23.8-0.2c-3-0.6-5.6-2.3-7.2-4.9c-7.8-11.2-15.4-22.6-24-33.2
	c-1.8-2.2-4.6-4.3-4.9-6.7c-0.3-2.1,2.1-4.6,2.9-7.2c1.1-4.3,1.7-8.8,1.9-13.3c0.6-9.9,1.1-19.9,1.7-29.8c0-2,1.1-3.8,2.9-4.6
	C158,122.4,159.2,118.8,160.6,115z M133,94.6c-0.1-2.4,2.4-5.8,4.2-5.3c3.1,0.9,2.9,3.8,3.2,7c0.1,1.5-0.4,3-2.9,3.1
	C134.9,99.4,132.9,97.2,133,94.6C133,94.6,133,94.6,133,94.6z M139.7,110.8c0.9-3.1,1.5-5.8,4.4-8.1c4.1-3.2,3.8-9.6,0.5-14.7
	c-3.6-5.5-0.8-10.8-0.5-16.2c0.1-1.3,1.6-0.9,2.4-0.5c5.2,2.5,9.5,6.3,9.8,12.3c0.7,10.2,0,20.4-2.2,30.4c-0.6,2.7-1.4,5.4-5.4,5.2
	c-2.7-0.1-3,2.5-3.1,4.7c-0.6,8.6-1.1,17.3-1.7,25.9c-0.3,4.6-0.6,9.1-1,14.1l-18-3.5C130,143.6,135,127.2,139.7,110.8L139.7,110.8z
	 M185.6,417.6c7.7,3.2,15.4,6.2,23.1,9.2c0.9,0.4,1.7,0.8,3,1.4c-4.3,2.2-9.2,3-14,2.3c-6.2-0.8-12.6-1.1-18.8-1.4
	c-2.9-0.2-5-1.5-5.1-4.3c-0.1-10.6-4.1-20.4-6.8-30.4c-1.8-6.4-3.4-12.9-4.8-19.4c5-1,10,0.9,15.1,0.5c1.5-0.1,1.4,1,1.4,2
	c0.5,7.5,1,15,1.6,22.5c0.4,4.7,1,9.4,1.4,14.2C182,416.7,184.1,417,185.6,417.6L185.6,417.6z M181.8,298.6
	c1.6,7.5,0.5,14.9-0.4,22.3c-1.1,9.1-3.2,18.1-4.8,27.1c-1,5.7,0.5,11.6,1.1,17.3c0.3,2.7,0.1,4.2-3.2,3.6c-2-0.2-3.9-0.3-5.9-0.3
	c-7.6-0.3-7.7-0.3-7.9-8.1c-0.1-6.3,1.6-12.6,0.4-18.9c-2.6-13.4-5.6-26.8-8.6-40.2c-2-9.5-4.7-18.8-6.1-28.4
	c-1-6.7,0.2-13.4,5.8-18.4c1.4-1.4,3.3-2.2,5.2-2.5c2.1-0.3,3.5-1.6,3.1-3.8c-0.4-2-2-2.6-4-2.4c-2.1,0.3-4.1,1-5.8,2.2
	c-1.1,0.7-1.8,0.9-2.6-0.7c-9.8-19.5-19.7-39-26.7-59.8c-2.2-6.4-2.6-12.7,0.3-19.1c0.8-1.6,1.2-2.5,3.4-2c4.7,1.1,9.4,1.9,14.2,2.7
	c2.4,0.4,2.8,1.3,1.7,3.4c-0.6,1.5-1.5,2.8-2.6,4c-1.8,1.6-1.5,3.1,0,4.8c10.9,11.9,19.6,25.6,29.1,38.6c2.7,3.8,4.5,8.7,10.2,9.3
	c1.6,0.2,1.1,1.8,1,2.8c-0.7,9.7-0.7,19.5,0,29.3c0.8,10.6,2.6,20.9,7.2,30.6C182.4,292.9,181.1,295.3,181.8,298.6L181.8,298.6z
	 M239.2,269.4c-14.7,7.8-30,14.1-45.5,20.1c-2,0.8-2.2-0.2-2.7-1.5c-3.7-8.6-5.2-17.8-6-27c-0.8-9.9-0.8-19.8,0.1-29.7
	c6.5,0.8,12.9,1.6,19.2-0.2c7.5-2.2,12.8-6.6,14.3-14.7c0.1-0.9,0.7-1.8,1.6-2.1c6.2-3.4,12.3-7.2,17.4-12.6c3,4.3,5,9,8.1,13
	c1.1,1.4,2,2.7,3.8,2s2.6-2.3,2.4-4.4c-0.6-4.6-0.9-9.3-1.3-14c0.1-0.2,0.4-0.2,0.6-0.1c0,0,0.1,0.1,0.1,0.1
	c1.9,6.1,5.8,10.4,12.6,12.6c-10.2,4.5-17.3,11.2-18,22.3s5.2,18.6,15.7,22.9C254.5,261,247,265.4,239.2,269.4L239.2,269.4z
	 M401.4,247.4c-15.4,0.1-31,1.6-46.2-1.8c-8.5-1.9-16.5-1.1-24.8,0.1c-16.1,2.5-32.3,1.6-48.4-1.1c-3-0.5-5.4,0-7.4,2
	c-3.4,3.4-6.9,5.7-12,3.2c-5.5-2.8-9.6-6.4-10.3-12.9c-0.8-7.2,3-15.9,11.3-18.7c0.6-0.2,1.1-0.5,1.6-0.8c2.9-2,5.2-2.2,7.8,1.1
	c3.5,4.5,8.7,7.4,14.4,7.9c20.9,2.6,41.5,6.9,62.5,8.7c6.4,0.5,12.7,2.9,19.1,4.3c11.9,2.5,24.2,3,36.3,1.6
	c5.9-0.6,11.9-0.1,17.7,1.4C416.3,245.6,408.9,247.3,401.4,247.4L401.4,247.4z"/>
</svg>
