<?xml version="1.0" encoding="utf-8"?>
<!-- Generator: Adobe Illustrator 21.1.0, SVG Export Plug-In . SVG Version: 6.00 Build 0)  -->
<svg version="1.1" id="圖層_1" xmlns="http://www.w3.org/2000/svg" xmlns:xlink="http://www.w3.org/1999/xlink" x="0px" y="0px"
	 viewBox="0 0 500 500" style="enable-background:new 0 0 500 500;" xml:space="preserve">
<style type="text/css">
	.st0{fill:#875855;}
</style>
<title>camp</title>
<g id="圖層_4">
	<path class="st0" d="M436.8,288C424,270.1,252.9,80.3,245.6,72.2l0,0l0,0c-0.1-0.1-0.3-0.3-0.4-0.4l0,0l-0.1-0.1
		c-0.1-0.1-0.3-0.2-0.4-0.3l-0.2-0.1c-0.1-0.1-0.3-0.1-0.5-0.2h-0.1c-0.2,0-0.4-0.1-0.6-0.1H243c-0.1,0-0.3,0-0.4,0h-0.2
		c-0.1,0-0.3,0.1-0.4,0.1l-0.2,0.1c0,0-0.1,0-0.1,0c-0.1,0-0.2,0.1-0.4,0.2h-0.1c-0.2,0.1-0.3,0.2-0.5,0.4l-0.1,0.1
		c-0.1,0.1-0.2,0.2-0.3,0.3l-0.1,0.1L64.4,292.9c-0.1,0.1-0.1,0.1-0.1,0.2c-0.1,0.1-0.2,0.2-0.2,0.4c-0.1,0.1-0.1,0.2-0.2,0.3
		l-0.2,0.4c0,0.1-0.1,0.3-0.1,0.4c0,0.1-0.1,0.2-0.1,0.4c0,0.1,0,0.3,0,0.4c0,0.1,0,0.2,0,0.2s0,0.1,0,0.1s0,0.3,0,0.4
		c0,0.1,0,0.2,0,0.4c0,0.1,0.1,0.3,0.1,0.4c0,0.1,0.1,0.2,0.1,0.4c0,0.1,0.1,0.2,0.2,0.3s0.1,0.2,0.2,0.4l0.2,0.2
		c0.1,0.1,0.2,0.3,0.3,0.4l0,0l0.1,0.1c0.1,0.1,0.3,0.3,0.5,0.4l0.1,0.1c0.2,0.1,0.3,0.2,0.5,0.3l0.1,0c0.2,0.1,0.4,0.1,0.5,0.1h0.3
		h0.3c0.1,0,2.4,0,6.3,0.1L63.6,343c-0.3,1.1-0.1,2.2,0.5,3.2c0.5,0.9,1.4,1.6,2.5,1.8c0.5,0.1,26.7,4.6,59.4,8
		c0.1,0,0.2,0.1,0.3,0.1h0.4c20.6,2.3,41.4,3.5,62.1,3.7c7.7,0,15.1-0.2,22-0.8l184.8-14.3h0.1h0.1l34.5-4.7
		c1.3-0.2,2.4-1.1,2.9-2.3c0.5-1.3,0.5-2.7-0.2-3.9c-4.8-8.2-5.1-27.7-4.7-38c4.7-0.4,6.9-1.5,7.6-2c0.9-0.6,1.5-1.6,1.7-2.7
		C437.7,290.1,437.5,288.9,436.8,288z M386.2,279.9c-0.5-1.2-0.9-2.3-1.4-3.4c-4-10.2-8.8-20.2-14.3-29.7
		c-38.5-61.6-48.3-68.7-60-73.1s-21.9,9.8-22.3,10.4l-0.1,0.1c-22.9,35.9-41.8,69.1-55.7,97.7L246,84.1
		c28.5,31.6,155,172.2,181,203.8C420.9,288.3,408.6,287.3,386.2,279.9L386.2,279.9z M389.9,337c-16.8-19.2-17.1-60.2-17.1-60.6
		c0-1.3-0.6-2.5-1.6-3.3c-37.7-27.8-57.5-76.4-63.1-92h0.1c9.9,3.7,19.1,10.6,56.2,70c5.2,9.2,9.8,18.7,13.6,28.5
		c5.9,14.6,12.8,36.1,13.5,57.3L389.9,337z M365.6,278.6c0.2,8.5,2,39.4,15.4,59.1l-148.8,11.6c9.4-16.3,13.3-48.1,14.2-57.7
		c20.7-11.1,37.5-34,48.9-66.4c3.8-10.8,6.7-21.9,9-33.1C312.5,212.9,331.9,253,365.6,278.6L365.6,278.6z M224.1,299
		c-15.1-3-35.2-3.9-60-2.7c-11.2,0.6-20.9,1.5-27.1,2.1l101-205l-14,204.2C224,298.1,224,298.6,224.1,299z M128.7,298.6
		c-16.7-4.8-36.7-6.3-49.3-6.8c-0.1,0-0.2-0.1-0.3-0.1c-0.6-0.2-1.3-0.1-1.8,0l-2.1-0.1l149-186.9L128.7,298.6z M81,299.8
		c12.3,0.6,30.5,2.2,45.6,6.4l-3.3,41.4c-23.7-2.6-43.4-5.6-51.6-7L81,299.8z M130.6,348.5l3.3-41.6c11.8-1.4,56.8-5.9,87.3-0.3
		c-0.6,1.5-1.3,3-1.9,4.5c-7.6,18.8-11.4,32.8-12.3,40.2C183.8,352.7,155.6,351,130.6,348.5L130.6,348.5z M226.5,313.2
		c9.6-23.3,29.1-63.8,67.7-124.4c1.2-1.6,2.5-3,4-4.3c-3.6,21.3-17.2,81.3-56.7,100.8c-1.2,0.6-2,1.9-2.1,3.3
		c-1.8,20.2-8.1,54.2-17.3,61.5l-7.5,0.6C215.4,345,218.3,333,226.5,313.2L226.5,313.2z M399,336.1c-0.7-16.6-4.8-33.2-9.4-46.8
		c14.2,4.4,24.3,6.1,31.3,6.5c-0.3,7.9-0.4,25.2,3.4,36.8L399,336.1z"/>
</g>
</svg>
