<svg id="圖層_2" data-name="圖層 2" xmlns="http://www.w3.org/2000/svg" viewBox="0 0 495.83 495.83"><title>camp_order</title><path d="M462.76,391.4H444.41l-1.87-15.82c-14.52-119.24-34.93-139.05-44-154.24s-57.9-67.46-104.12-119.74c-38.86-44.54-45.57-42.9-46.94-42.9s-8.08-1.64-46.94,42.9c-46.21,52.29-95.1,104.56-104.12,119.74s-29.43,35-44,154.24L50.65,391.4H33.07a18.47,18.47,0,0,0,0,36.94H462.76a18.47,18.47,0,1,0,0-36.94ZM306.62,362.25H193V342.87l56.26-61.37q12.18-13.57,17.34-22.68a36.76,36.76,0,0,0,5.16-18.27q0-12.06-6.79-19.49t-18.27-7.42q-13.69,0-21.23,8.35T218,244.85H189.8a55.24,55.24,0,0,1,7-27.78,48.33,48.33,0,0,1,20.07-19.2q13-6.84,30.1-6.84,24.59,0,38.81,12.35T300,237.54q0,12.65-7.13,26.51t-23.37,31.5l-41.3,44.2h78.42Z"/></svg>