<svg id="圖層_2" data-name="圖層 2" xmlns="http://www.w3.org/2000/svg" viewBox="0 0 495.83 495.83"><title>camp_order</title><polygon points="210.01 302.04 254.21 302.04 254.21 231.5 252.13 235.22 210.01 302.04"/><path d="M462.76,391.4H444.41l-1.87-15.82c-14.52-119.24-34.93-139.05-44-154.24s-57.9-67.46-104.12-119.74c-38.86-44.54-45.57-42.9-46.94-42.9s-8.08-1.64-46.94,42.9c-46.21,52.29-95.1,104.56-104.12,119.74s-29.43,35-44,154.24L50.65,391.4H33.07a18.47,18.47,0,0,0,0,36.94H462.76a18.47,18.47,0,1,0,0-36.94ZM303.4,324.66h-21v37.59H254.21V324.66h-73l-.81-17.17,72.85-114.15H282.4V302h21Z"/></svg>