<svg xmlns="http://www.w3.org/2000/svg" width="43.467" height="40" viewBox="0 0 43.467 40">
  <path id="Facebook" d="M9.638,37.019A17.9,17.9,0,0,1,.156,18.453,1.31,1.31,0,0,1,.185,18.3,1.31,1.31,0,0,1,.2,18.151C2.161,4.9,17.593-2.638,30.181.85,40.03,3.579,44,14.775,43.41,24c-.465,7.254-5.846,12.456-12.614,14.657A28.057,28.057,0,0,1,22.157,40,26.973,26.973,0,0,1,9.638,37.019ZM12.6,35.884c10.67,4.367,28.851.712,28.511-13.334C40.9,13.56,37.184,3.782,26.979,2.537,16.006,1.2,4.191,7.348,2.455,18.661,1.6,26.317,5.279,32.892,12.6,35.884Zm6.172-4.1a1.093,1.093,0,0,1-1.009-.645,1.191,1.191,0,0,1-.153-.5,62.215,62.215,0,0,1-.225-6.79c-.814-.019-1.628-.029-2.442-.056a1.162,1.162,0,0,1-1.119-.838,23,23,0,0,1-.256-2.882c-.012-.777-.089-1.711.607-2.239a5.354,5.354,0,0,1,2.389-.487c.376-.049.746-.081,1.116-.1-.027-2.412-.351-5.245,1.187-7.151,1.553-1.927,4.349-2.288,6.667-1.812,2.25.46,4.673,1.972,5.243,4.294.492,2.016-.8,4.154-2.894,4.032a.923.923,0,0,1-.772-.153.975.975,0,0,1-.545-.555c-.174-.261-.285-.538-.5-.853a.915.915,0,0,0-1.274-.285c-.384.312-.2,1.3-.174,1.7.018.23.039.458.058.686.862-.045,1.726-.062,2.591-.1a1,1,0,0,1,1.014.589,1.13,1.13,0,0,1,.146.554c.031,1.569.016,3.133.144,4.7a.945.945,0,0,1-.378.889,1.033,1.033,0,0,1-.784.253c-.7-.038-1.406-.032-2.109-.025-.283,0-.567.006-.85.005q-.008,3.273.253,6.535a.948.948,0,0,1-.743,1.054,1.254,1.254,0,0,1-.419.088c-1.2.052-2.406.1-3.61.1Q19.355,31.8,18.775,31.787ZM22.3,29.469q-.209-3.158-.167-6.325a1.062,1.062,0,0,1,1.071-1.432c.7.038,1.4.031,2.1.025.29,0,.579-.005.869,0-.034-.781-.044-1.563-.054-2.346-.792.026-1.582.053-2.371.117a1.162,1.162,0,0,1-.449-.045,1.007,1.007,0,0,1-.911-1.082c.074-1.839-.809-4.623,1.363-5.632a3.491,3.491,0,0,1,2.865-.156,3.486,3.486,0,0,1,1.2.982,3.738,3.738,0,0,1,.362.527,1.164,1.164,0,0,0,.1-1.558,2.569,2.569,0,0,0-.759-.826,5.36,5.36,0,0,0-1.788-.994,5.771,5.771,0,0,0-3.957.035c-2.633,1.192-1.665,5.343-1.8,7.657a1.218,1.218,0,0,1-.081.378.986.986,0,0,1-1.081.769,13.125,13.125,0,0,0-2.935.135c0,.021,0,.042,0,.063,0,.266,0,.537.016.808q.019.49.064.981c.788.018,1.575.028,2.364.054a1.394,1.394,0,0,1,.157.015,1.06,1.06,0,0,1,1.256,1.094,62.752,62.752,0,0,0,.1,6.812C20.666,29.52,21.485,29.5,22.3,29.469Zm-6.239-7.117Z" fill="#fff"/>
</svg>
