<svg xmlns="http://www.w3.org/2000/svg" width="42.75" height="40" viewBox="0 0 42.75 40">
  <path id="Instagram" d="M9.479,37.019C2.56,33.3-.78,26.168.154,18.453A1.33,1.33,0,0,1,.182,18.3,1.334,1.334,0,0,1,.2,18.151C2.126,4.9,17.3-2.638,29.683.85,39.37,3.579,43.272,14.775,42.694,24c-.457,7.254-5.75,12.456-12.406,14.657A27.176,27.176,0,0,1,21.792,40,26.177,26.177,0,0,1,9.479,37.019ZM12.4,35.884c10.494,4.367,28.375.712,28.04-13.334-.213-8.99-3.865-18.768-13.9-20.013C15.743,1.2,4.122,7.348,2.414,18.661,1.571,26.317,5.191,32.892,12.4,35.884Zm12.3-3.446c-.541-.016-1.06-.031-1.54-.026-5.285.049-12.439.133-14.607-5.792C7.392,23.445,7.518,19.667,7.59,16.34c.057-2.761.209-5.777,2.95-7.223,2.6-1.374,6.1-1.128,8.956-1.28,3.224-.17,6.441-.186,9.668-.126h.083c.038,0,.075,0,.112.007,2.55.177,3.69,2.091,4.024,4.482a54.929,54.929,0,0,1-.061,10.791c-.16,2.6.187,6.382-2.087,8.222-1.317,1.067-3.229,1.251-5.083,1.251C25.66,32.464,25.172,32.451,24.7,32.438ZM20.053,10.1c-1.421.068-2.84.156-4.261.251-1.58.1-3.721.072-4.912,1.314-1.253,1.3-.993,3.72-1.012,5.38-.02,1.633.023,3.271.141,4.9.255,3.514,1.226,6.587,4.984,7.566a32.843,32.843,0,0,0,8.62.616c1.325-.023,2.666-.015,3.991-.1,2.38-.152,3-1.4,3.21-3.61.312-3.333.48-6.721.487-10.068,0-1.688.457-6.155-1.994-6.347h-.05q-1.742-.035-3.48-.037C23.868,9.963,21.96,10,20.053,10.1Zm-5.312,11.7A5.881,5.881,0,0,1,19.7,14.44c3.183-.56,6.752.96,7.308,4.409,0,.025.007.05.01.075a1.291,1.291,0,0,1,.031.234c.156,3.488-1.717,6.781-5.392,7.288a6.389,6.389,0,0,1-.873.06A6.18,6.18,0,0,1,14.741,21.792Zm2.3-.263a3.921,3.921,0,0,0,4.6,2.613c2.363-.5,3.2-2.7,3.13-4.883a3.425,3.425,0,0,0-3.6-2.662C18.7,16.6,16.064,18.468,17.037,21.529Zm8.709-7.546a1.4,1.4,0,0,1,1.21-2.156,1.537,1.537,0,0,1,1.352.883,1.529,1.529,0,0,1,.294.568,1.336,1.336,0,0,1-.9,1.584,1.244,1.244,0,0,1-.4.066A1.953,1.953,0,0,1,25.746,13.983Z" fill="#fff"/>
</svg>
