<?xml version="1.0" encoding="utf-8"?>
<!-- Generator: Adobe Illustrator 21.1.0, SVG Export Plug-In . SVG Version: 6.00 Build 0)  -->
<svg version="1.1" id="圖層_1" xmlns="http://www.w3.org/2000/svg" xmlns:xlink="http://www.w3.org/1999/xlink" x="0px" y="0px"
	 viewBox="0 0 500 500" style="enable-background:new 0 0 500 500;" xml:space="preserve">
<style type="text/css">
	.st0{fill:#875855;}
</style>
<title>kitchen</title>
<g>
	<path class="st0" d="M305.5,374.6c-6.7,2.7-13.8,3.6-20.9,4.8c-2,0.3-2.9,0.1-2.9-2.3c0-8.2-1.8-16.4-0.5-24.6
		c0.4-1.6-0.3-3.4-1.8-4.2c-1.7-0.9-2.8,0.3-4,1.2c-6.7,5.4-13.3,10.7-20.1,16c-11.6,9.1-22.2,8.9-33.5-0.7c-2.1-1.8-3.9-3.9-6-5.8
		c-2.3-2-4.8-1.4-5.3,1.3c-2.4,13.6-2.8,27.2,2.9,40.2c0.7,1.7,0.6,5.2,3.8,4.1c3.2-1.1,1-3.8,0.5-5.6c-3.1-10.3-3.9-21.1-2.2-31.7
		c0.7,0.5,1,0.8,1.4,1.1c13.4,11.2,23.6,11.9,38.5,2.9c6.6-4,12.6-9,19.4-13.9c0,7.9,1.6,15.2,0.7,22.6c-0.7,5.9,0.5,7,6.1,6
		c6.9-1.2,13.9-2.4,20.9-3.5c-1.3,4-2.5,7.9-3.8,11.8c-0.6,1.8-0.7,3.6,1.3,4.5c2,0.9,3.1-0.4,4.1-2.1c3.3-5.7,5.1-11.9,6.3-18.3
		C311,374.8,309,373.1,305.5,374.6z"/>
	<path class="st0" d="M191.9,374.9c-0.1,0-0.2-0.1-0.2-0.1c-0.6-0.4-1.2-0.7-1.8-1c-12.7-7.1-26.9-10.2-40.2-15.9
		c-2.9-1.2-4.8,0.6-4.7,3.9c0.2,9.6,2.9,19.1,8,27.3c6.4,10.6,17.3,17.6,29.6,19.1c1.5,0.2,2.9,0.5,3.4-1.3s-0.9-2.6-2.5-3
		c-1.2-0.3-2.4-0.8-3.6-1.1c-15.2-4.8-26.7-20-27.2-36.2c8,2.8,16.1,5.6,24.1,8.5c4.2,1.5,8.5,2.9,12.8,4.4c1.2,0.6,2.7,0,3.2-1.2
		c0,0,0,0,0,0C193.4,377,193,375.6,191.9,374.9z"/>
	<path class="st0" d="M419.2,182.8c-10.3-13.3-23.8-14.3-36.1-2.8c-1,1-1.7,2.5-3.4,2.8c0.5-1.9,0.7-3.9,0.5-5.8
		c-0.8-8.8-5.8-14.7-12.9-19.1c-11.6-7.3-24.7-10.2-37.9-12.7c-5.1-1-10.3-1.7-16-2.7c3-2.9,5.7-6.1,8.1-9.5
		c4.5-6.6,7.3-13.7,4.4-21.8c-2.4-6.8-6.9-11.9-12.2-16.6c-1.6-1.6-4.1-1.6-5.8-0.1c-0.1,0.1-0.1,0.1-0.2,0.2
		c-1.9,1.8-2,3.8-0.4,5.9s3,3.8,4.4,5.8c4.7,6.6,6.1,13.7,2.6,21.2c-1.7,3.8-4.5,7-7.1,10.2c-2.2,2.7-4.6,3.6-8.1,3.1
		c-10.7-1.5-21.4-2-32.2-2.6c-7-0.4-7-0.3-5.4-7c0.2-0.7,0.3-1.3,0.5-2c2.4-11.1,2.4-22-2.4-32.6c-1.2-2.7-3.1-3.8-5.8-2.8
		c-2.7,1-3.2,3.2-2.4,5.7c3.9,11.6,3,23.2,0.1,34.9c-0.7,2.6-1.6,3.2-4.1,3.2c-12.9-0.1-25.7-0.5-38.5,0.4c-2.7,0.2-6,1.1-7.8-0.1
		c-1.8-1.2-0.9-4.9-1.4-7.5c-1.8-10.8-6.4-20-15.8-26.2c-1.7-1.1-3.5-2-5.5-0.7c-1.5,0.9-2.4,2.6-2.3,4.4c0,2,1.4,3.1,2.8,4.1
		c6.6,4.6,9.7,11.3,11,19c1.4,7.8,1.3,7.8-6.5,8.8l-4.5,0.5c-15.4,2-30.7,4.5-45.1,10.3c-5.6,2.2-10.9,5.1-15.6,8.8
		c-9.8,7.8-13.2,17.7-9.9,29.9c0.3,1,1,2.1,0.3,3c-1,1.1-2.1,0.1-3.2-0.3c-4.4-1.3-9.1-0.8-13.1,1.4c-6.6,3.4-10.6,9.1-14,15.4
		c-2.9,5.4-4.5,11.2-6.4,17v5.6c1.1,1.2,1.1,3,0,4.2v1.3c0.8,0.4,0.5,1.2,0.7,1.8c1.3,5.2,3.4,9.8,8,13c7.6,5.2,15.8,5.4,24.2,2.9
		c2.1-0.6,2.8-0.3,3.2,1.8c2.6,16.6,9.3,31.7,18.5,45.5c15.8,23.6,35.5,42.9,62.7,53.3c1.8,0.7,1.9,1.7,1.4,3.2
		c-1,3.6-1.7,7.2-2,10.9c-0.1,1.5-0.3,2.9,1.7,3.2c1.9,0.3,2.3-0.9,2.7-2.5c1.3-5.8,3.2-11.6,5.5-17.1c6.6-15.4,18-26.1,32.8-33.5
		c3.5-1.8,5.3-0.4,5.1,3.5c-0.2,4.2-1.7,8.1-3,12.1c-0.6,1.7-1.5,3.5,0,5.2c1.5,1.7,3.6,1.2,5.5,0.7c15.7-4.1,26.9-17.3,29.2-33.9
		c0.9-7.1,0.7-14.3-0.8-21.3c0.4,0,0.7-0.2,0.9-0.1c20.1,9,32.6,24.1,36.7,45.9c1.7,9.2,1.3,18.4-0.3,27.6c-0.5,3,1,5,3.5,4.5
		c2.1-0.5,4.3-1,6-3c6.6-7.9,15.3-13.6,21.9-21.7c4.9,12.1,5.6,25.5,1.9,38c-3,10.1-8.8,18.5-16.1,26c-1.6,1.6-2.5,3.5-0.7,5.5
		c1.9,2,3.9,1.4,5.8-0.3c5.6-5,10.3-11,13.7-17.7c9.6-19.5,8.1-38.9-0.2-58.3c-0.7-1.6-1-3.7-3.5-3.6c-2.2,0.1-3.2,1.6-4,3.4
		c-4.4,10-13.4,15.9-21.1,24c0.1-1.7,0.1-2.6,0.2-3.5c1.3-8.3,0.9-16.7-1-24.8c-6.2-25.7-22.7-42-47.1-50.8c-3.8-1.4-5.8,0.6-5,4.5
		c0.3,1.5,0.8,2.9,1.2,4.3c2.5,10.8,2.4,21.4-2.4,31.5c-3.3,7.1-9.3,12.7-16.6,15.3c1.6-6.7,1.5-13,1.7-19.2c0.1-4-2-5.8-5.3-4.4
		c-18.9,8.2-34.6,20-43.3,39.4c-0.9,2.1-1.7,2.3-3.7,1.3c-18.6-9.1-34.6-21.5-47-38.1c-23.7-31.6-31-66-17.2-103.8
		c1-2.9,2.2-3.1,4.9-2.2c32.7,10.7,66.2,18.2,100.6,20.7c30.6,2.2,60.9,0.5,90.4-8.4c19.2-5.8,38.6-11.7,53.1-26.9
		c1.3-1.4,1.7,0.2,2.5,0.5c0.4,0.2,2.1-0.1,1,1.4c-1.4,2-0.4,4.1,0.1,6c5.7,21.6,9.2,43.4,8.8,65.8c-0.3,16.6-2.7,32.7-9.9,47.8
		c-6.1,12.9-15.5,22.6-28.5,28.7c-1.8,0.8-3.5,1.8-2.5,4.1c1,2.1,2.6,2.5,4.9,1.6c4.7-1.7,9.1-4,13.3-6.7
		c13.9-9.7,21.5-23.5,26.2-39.3c4.8-16.4,5.8-33.2,4.8-50.2c-0.1-2.5,0.3-3.4,3.1-3.1c8.8,0.8,15.7-2.8,20.9-9.9
		C430.9,222.6,430.5,197.4,419.2,182.8z M250.3,164.3c1.5-5.1,3.5-10,5.2-15c0.3-1.3,1.5-2.1,2.7-1.8c0,0,0,0,0.1,0
		c11.7,0.7,23.3,1.3,35,2c0.6,0.1,1.3,0.3,1.9,0.6c-3.1,2.9-6,5.2-8.5,7.8c-5.3,5.6-9.4,12-10.3,20c-0.2,1.5-1,1.5-2.1,1.5
		c-7.6-0.1-15.3-0.3-22.9-0.4c-1.8,0-2.3-0.8-2.5-2.4C248.3,172.4,249.2,168.3,250.3,164.3z M200.8,148.7c0-1.1,0.7-1.3,1.6-1.3
		c15.1-0.2,30.2-1,45.5-0.1c-2.4,10.3-7.9,20.1-4.3,31.5c-9.3-0.6-18.3-1.3-27.2-1.9c-4-0.3-8.1-0.6-12.1-0.9
		c-1.2-0.1-2-0.3-2.4-1.8C199.6,165.8,200.9,157.3,200.8,148.7z M113.6,214.3c-4.7,9.5-6.9,19.9-6.5,30.5c0.1,2.6-0.6,3.7-3.3,3.6
		c-2.3,0-4.6,0.2-6.9,0.5c-12.5,0-18.7-6.9-17.1-19.5c1.2-9.5,4.5-18.1,11.3-25.1c7.2-7.6,14.3-7.5,21.3,0.3
		C116.1,209,116.1,209,113.6,214.3z M118.8,205.8l-2.5-4.7c2.1-0.3,3.4,0.6,5,1.3L118.8,205.8z M364.8,188.3L364.8,188.3
		c-5.8,5.8-12.9,9.3-20.5,11.9c-20,6.8-40.7,11.5-61.7,14c-22.3,2.6-44.9,2.7-67.2,0.3c-23.5-2.3-46.6-7-69.5-12.7
		c-9.1-2.3-18.1-4.8-27.1-7.1c-1.8-0.5-3-0.7-2.6-3.2c0.4-2.4-0.7-5-0.7-7.5c0.2-10.8,6.8-17.3,15.5-22.1c11.4-6.3,23.9-9.1,36.6-11
		c7.2-1.1,14.5-1.7,21.7-2.7c1.9-0.2,2.6,0,2.7,2.2c0.4,8,0,16,1.6,23.9c0.4,2-1.1,1.6-2.1,1.6c-8.5,0.4-16.8,1.5-24.7,4.9
		c-3.2,1.4-6.2,3-9.1,5c-1.5,1-2.7,2.3-1.6,4.3s2.8,1.5,4.4,0.6c10.2-5.7,21.2-7.6,32.7-7.8c1.2,0,2.5-0.5,3.3,1.1
		c4.1,8.3,11.4,10.9,20.1,10.9c2,0,3.9-0.2,5.9-0.3c1.6-0.1,2.8-0.9,2.9-2.4c0.1-1.5-1-2.4-2.7-2.6c-5.4-0.6-10.7-1.7-15.1-5.4
		c-0.7-0.1-1.1-0.8-0.8-1.1c0.7-0.7,1.6-0.4,2.3,0.2c13.4,1,26.7,2.8,40.2,2.9c8.3,0.1,16.5,0.4,24.8,0.3c2.4,0,3.9,0.4,4.5,3
		c0.6,2.6,2.4,4.7,3.8,7c0.9,1.5,2.1,2.3,3.7,1.4c1.6-0.7,2.3-2.5,1.6-4.1c-0.1-0.1-0.1-0.2-0.2-0.3c-0.6-1.3-1.3-2.5-1.8-3.7
		c-1-2.1-1.2-3.4,2.1-3.5c14.7-0.1,29.4-1.4,43.9-3.6c2.2-0.4,5.6,0.1,5.1-3.5c-0.4-3.5-3.3-3.1-6-2.8c-14.4,1.8-28.8,2.9-43.3,3.2
		c-2.7,0.1-3.1-0.6-2.4-3.1c2.4-7.7,8-13.1,13-19c4.5-5.3,9.3-7.2,16.5-5.7c12.4,2.6,25,4.7,36.9,9.2c5.3,1.9,10,5,13.8,9.1
		C370.7,176.2,370.6,182.6,364.8,188.3z M417.2,227.5L417.2,227.5c-3.3,6.4-8.9,9.1-15.3,10.9c-6.6,1.9-6.5,1.8-7.3-5
		c-1.5-12.7-4.2-25.3-8.1-37.5c-0.9-2.9-2.1-5-5.9-4.8c3.4-3.7,6.5-6.9,10.4-9.2c6.7-4,13.5-3.2,19,2.2
		C420.1,193.8,423.4,215,417.2,227.5z"/>
</g>
</svg>
