<?xml version="1.0" encoding="utf-8"?>
<!-- Generator: Adobe Illustrator 21.1.0, SVG Export Plug-In . SVG Version: 6.00 Build 0)  -->
<svg version="1.1" id="圖層_1" xmlns="http://www.w3.org/2000/svg" xmlns:xlink="http://www.w3.org/1999/xlink" x="0px" y="0px"
	 viewBox="0 0 500 500" style="enable-background:new 0 0 500 500;" xml:space="preserve">
<style type="text/css">
	.st0{fill:#875855;}
</style>
<title>location</title>
<g>
	<path class="st0" d="M399.1,166.5c-13.9-4-27.7-8.3-41.6-12.3c-2.5-0.7-2.5-1.5-1.7-3.6c4.4-11.2,6-22.7,3.6-34.6
		C354.3,91,335,72.4,309.4,67.9c-27.6-4.9-56.5,11.7-66.4,37.9c-5.6,14.3-5.5,30.2,0.4,44.4c1.1,2.8,0.5,3.6-2.2,4.4
		c-13,3.7-26,7.6-39,11.6c-1.6,0.5-3.3,0.5-5-0.1c-31.2-9.3-62.3-18.6-93.6-27.8c-6.3-1.9-8.7-0.1-8.7,6.4v195.2
		c0,5,0.8,6.1,5.6,7.5c21.3,6.3,42.5,12.6,63.8,18.9c11.3,3.4,22.6,6.8,34,10.3h3c2.1-0.6,4.3-0.7,6.4-1.3
		c28.9-8.5,57.7-17.1,86.6-25.7c3-1,6.2-1.1,9.2-0.3c13.1,3.8,26,7.8,39.1,11.6c18.4,5.2,36.4,11.6,55.1,15.8h3
		c1.5-0.9,2.7-2.1,3.6-3.6V170.4C403.3,168.4,401.3,167,399.1,166.5z M194.9,262.4c0,2.3-0.4,2.7-2.7,2c-10-3.1-20-6-30-8.9
		c-1.5-0.6-3.2-0.7-4.7-0.2c-1.9,0.7-3,2.5-3,4.5c0,2.5,1.6,4.1,3.9,4.8c5.6,1.7,11.2,3.3,16.7,5c5.9,1.7,11.7,3.6,17.6,5.2
		c1.5,0.4,2.1,0.9,2.1,2.6c-0.1,28.8-0.1,57.6-0.1,86.4c0,0.4-0.1,0.7-0.2,1.1c-10.2-3-20.5-6-30.7-9c-18.8-5.6-37.5-11.2-56.3-16.7
		c-2.3-0.7-2.9-1.6-2.9-3.9c0.1-27.8,0.1-55.6,0-83.4c0-2.9,0.7-3,3.2-2.3c9.9,3.1,19.8,6,29.8,8.9c4.3,1.3,7.4-0.5,7.5-4.2
		c0.1-3.2-2-4.5-4.8-5.3c-10.8-3.2-21.5-6.5-32.4-9.5c-2.7-0.7-3.3-1.8-3.3-4.5c0.1-27.5,0.1-55,0.1-82.5c0-3.6,0-3.6,3.6-2.6
		c28,8.3,56,16.6,84.1,24.9c1.8,0.5,2.4,1.3,2.4,3.3C194.8,206.1,194.8,234.3,194.9,262.4z M263,92.8c14.3-15,32.3-19.6,52-13.4
		c19.9,6.3,31.6,20.5,35.2,41.2c2.1,11.9-1.4,23-6.4,33.5c-11,22.9-27,42.3-44.1,61.1c-18.2-20.5-36-41.2-46.4-66.9
		C244.9,127.9,247.7,108.9,263,92.8z M207.4,174.7c13-3.8,26-7.6,39-11.5c1.7-0.5,2.6-0.5,3.5,1.3c11.3,21.4,26.5,40.1,42.9,57.7
		c1.4,1.3,2.1,3.2,2,5.1c-0.2,2.1,0,4.2,0,6.3c0,4.9,0,4.9-4.5,6.2c-27.6,8.1-55.1,16.3-82.7,24.5c-2.3,0.7-2.9,0.4-2.9-2.1
		c0.1-14,0-28,0-42c0-14,0.1-28-0.1-42C204.7,176,205.4,175.2,207.4,174.7z M394.7,361.6v3.4c-7.1-2.1-13.9-4-20.7-6.1
		c-22.2-6.6-44.5-13.2-66.7-19.8c-1.9-0.6-2.7-1.3-2.6-3.4c0.1-10.4,0.1-20.7,0-31.1c0-1.2-0.1-2.4-0.4-3.6
		c-0.6-2.2-2.6-3.5-4.8-3.3c-2.1,0-3.9,1.5-4.3,3.5c-0.3,1.3-0.4,2.6-0.4,3.9c0,10.3,0,20.6,0,30.8c0,1.6-0.4,2.5-2.1,3
		c-28.7,8.5-57.4,17-86.1,25.5c-0.5,0.1-1,0.2-1.5,0.3c-0.6-0.9-0.4-1.8-0.4-2.7c0-27.9,0-55.8-0.1-83.7c0-2.1,0.5-3.1,2.7-3.8
		c28.2-8.2,56.3-16.6,84.3-25c2.4-0.7,3-0.4,3,2.2c-0.1,9.6-0.1,19.1,0,28.7c0,1.2,0.1,2.4,0.3,3.6c0.4,2.2,2.4,3.7,4.6,3.6
		c2.1,0.1,4-1.3,4.6-3.3c0.4-1.3,0.5-2.6,0.4-3.9v-31.7c8.2,2.4,16.1,4.7,23.9,7c21,6.2,42,12.5,63,18.6c2.6,0.7,3.1,1.9,3.1,4.4
		C394.6,306.4,394.6,334,394.7,361.6z M391.9,264.3c-28.2-8.4-56.4-16.8-84.6-25c-2-0.6-2.4-1.4-2.7-3.4c-0.9-7.8,1.6-13.5,7.2-19.4
		c14.7-15.6,27.7-32.7,37.7-51.8c0.9-1.6,1.6-2.1,3.5-1.5c13.2,4,26.3,7.9,39.5,11.7c1.8,0.5,2.3,1.4,2.3,3.1
		c-0.1,14.1,0,28.2,0,42.3s-0.1,28,0.1,42C394.7,264.8,394.1,264.9,391.9,264.3z"/>
	<path class="st0" d="M299.7,162.5c19.1,0,34.5-15.5,34.5-34.6c0-19.1-15.5-34.5-34.6-34.5c-19.1,0-34.5,15.5-34.5,34.6
		C265.2,147,280.6,162.4,299.7,162.5z M275.1,127L275.1,127c0.5-13.4,11.8-24.1,25.1-23.7c13.6,0.4,24.5,11.8,24.1,25.1
		c-0.5,13.7-11.9,24.8-25,24.2C285.2,152,274.6,140.8,275.1,127z"/>
</g>
</svg>
