<svg id="圖層_1" data-name="圖層 1" xmlns="http://www.w3.org/2000/svg" viewBox="0 0 50 50"><defs><style>.cls-1{fill:#ccd970;}</style></defs><title>map_order_2_1_c</title><path class="cls-1" d="M46.86,39.51H45l-.19-1.61c-1.48-12.12-3.55-14.13-4.47-15.67s-5.88-6.86-10.58-12.17C25.8,5.54,25.12,5.7,25,5.7s-.82-.17-4.77,4.36c-4.7,5.31-9.66,10.63-10.58,12.17s-3,3.56-4.47,15.67L5,39.51H3.19a1.88,1.88,0,0,0,0,3.75H46.86a1.88,1.88,0,0,0,0-3.75ZM31,36.55H19.44v-2l5.72-6.24A14.21,14.21,0,0,0,26.92,26a3.74,3.74,0,0,0,.52-1.86,2.82,2.82,0,0,0-.69-2,2.39,2.39,0,0,0-1.86-.75,2.76,2.76,0,0,0-2.16.85A3.31,3.31,0,0,0,22,24.62H19.12a5.61,5.61,0,0,1,.71-2.82,4.91,4.91,0,0,1,2-2,6.47,6.47,0,0,1,3.06-.7,5.81,5.81,0,0,1,3.94,1.26,4.36,4.36,0,0,1,1.45,3.47,5.89,5.89,0,0,1-.72,2.69,15.32,15.32,0,0,1-2.37,3.2L23,34.26h8Z"/></svg>