<svg id="圖層_2" data-name="圖層 2" xmlns="http://www.w3.org/2000/svg" viewBox="0 0 50 50"><defs><style>.cls-1{fill:#6b6b6b;}</style></defs><title>map_order_4_2</title><polygon class="cls-1" points="21.17 30.43 25.66 30.43 25.66 23.26 25.45 23.64 21.17 30.43"/><path class="cls-1" d="M46.86,39.51H45l-.19-1.61c-1.48-12.12-3.55-14.13-4.47-15.67s-5.88-6.86-10.58-12.17C25.8,5.54,25.12,5.7,25,5.7s-.82-.17-4.77,4.36c-4.7,5.31-9.66,10.63-10.58,12.17s-3,3.56-4.47,15.67L5,39.51H3.19a1.88,1.88,0,1,0,0,3.75H46.86a1.88,1.88,0,1,0,0-3.75ZM30.66,32.73H28.53v3.82H25.66V32.73H18.24L18.16,31l7.4-11.6h3v11h2.13Z"/></svg>