<?xml version="1.0" encoding="utf-8"?>
<!-- Generator: Adobe Illustrator 21.1.0, SVG Export Plug-In . SVG Version: 6.00 Build 0)  -->
<svg version="1.1" id="圖層_3" xmlns="http://www.w3.org/2000/svg" xmlns:xlink="http://www.w3.org/1999/xlink" x="0px" y="0px"
	 viewBox="0 0 219 219" style="enable-background:new 0 0 219 219;" xml:space="preserve">
<style type="text/css">
	.st0{fill:#875855;}
</style>
<title>logo</title>
<g>
	<path class="st0" d="M204.6,120.8c-0.1,0-0.1,0-0.2-0.1l0.1,0c-19.3-8.1-40.9-28.7-62.5-59.7c-7.9-11.4-14.5-22.2-19.2-30.4
		c-3.6-6.6-11.9-9-18.5-5.3c-2.2,1.2-4,3-5.3,5.2c-4.1,7.1-9.6,16.3-16.2,26.1c-2-3-3.1-4.8-3.1-4.9c-0.6-0.9-1.9-1.2-2.8-0.6
		c-0.9,0.6-1.2,1.7-0.7,2.7c0,0.1,1.5,2.5,4.1,6.5L79.6,61c-14.4,20.6-28.8,36.6-42.5,47.4l-2.5-2.8c-0.7-0.9-2-1-2.9-0.3
		c-0.9,0.7-1,2-0.3,2.9c0,0,0.1,0.1,0.1,0.1l2.3,2.6c-5.8,4.2-11.4,7.6-16.9,9.8c-1.1,0.4-1.6,1.6-1.2,2.6c0.4,1.1,1.6,1.6,2.6,1.2
		c0.1,0,0.1,0,0.2-0.1c6.4-2.8,12.5-6.3,18.1-10.5l1.3,1.4c0.7,0.9,2,1,2.9,0.3c0.9-0.7,1-2,0.3-2.9c0,0-0.1-0.1-0.1-0.1l-1-1.2
		c12.8-10.1,25.9-24.4,39.4-43.1c-1,4-2.3,7.8-3.9,11.6c-4.7,10.6-14.7,26.4-35.8,41.1c-1,0.6-1.3,1.8-0.7,2.8
		c0.6,1,1.8,1.3,2.8,0.7c0.1,0,0.1-0.1,0.2-0.2c22-15.3,32.4-31.9,37.3-43c1.3-3,2.4-6.1,3.4-9.3c0.9,3.2,2,6.3,3.4,9.3
		c4.9,11.2,15.3,27.7,37.3,43c0.9,0.7,2.2,0.5,2.9-0.4c0.7-0.9,0.5-2.2-0.4-2.9c0,0-0.1-0.1-0.1-0.1C104.5,106.4,94.4,90.6,89.8,80
		c-1.6-3.7-2.9-7.5-3.9-11.4c3.1,4.3,6.7,9.1,10.9,14.2c7.4,9,17.3,19.7,28.8,28.7l-1.1,1.2c-0.8,0.8-0.8,2.1,0,2.9
		c0.8,0.8,2.1,0.8,2.9,0c0,0,0.1-0.1,0.1-0.1l1.3-1.5c5.7,4.3,11.8,7.9,18.3,10.7c1,0.4,2.2-0.1,2.6-1.1c0.4-1-0.1-2.1-1-2.6
		c-6.1-2.7-11.9-6.1-17.2-10.1l2.2-2.5c0.8-0.8,0.8-2.1,0-2.9c-0.8-0.8-2.1-0.8-2.9,0c0,0-0.1,0.1-0.1,0.1l-2.5,2.8
		C108.9,93.3,93,72,85.1,60.3c2.9-4.2,5.6-8.3,8-12.2c1.2,1.5,2.4,3,3.6,4.5c1.5,1.8,3.3,4.7,6,4.3c1.2-0.2,2.2-0.9,2.9-1.9
		c0.7-1,1.2-2.8,2.6-2.4c1.3,0.3,2.3,2,3.1,2.9l0.9,1.1c1.4,1.8,2.8,3.6,4.3,5.3c1.5,1.7,3.3,4.7,6,4.3c1.2-0.2,2.2-0.9,2.9-1.9
		c0.7-1,1.2-2.8,2.6-2.4c1.3,0.3,2.3,2,3.1,2.9l2.4,3c0.6,0.7,1.1,1.4,1.7,2.1c1.5,1.8,3.3,4.7,6,4.3c1.2-0.2,2.2-0.9,2.9-1.9
		c0.2-0.2,0.3-0.4,0.4-0.7c20.3,27.4,39.9,45.1,58.4,52.9c1,0.5,2.2,0,2.7-1C206,122.5,205.6,121.3,204.6,120.8z M142.1,68.6
		c-0.3,0.4-0.8,1.8-1.3,2c-0.4,0.1-1.2-1.1-1.4-1.4c-1.2-1.3-2.4-2.7-3.5-4.1c-1-1.3-2-2.6-3.1-3.8c-1.6-1.9-3.7-3.5-6.3-3
		c-1.3,0.3-2.4,1.2-3.1,2.3c-0.3,0.4-0.8,1.8-1.3,2c-0.4,0.1-1.2-1.1-1.4-1.4c-1.1-1.2-2.1-2.4-3.2-3.7c-1-1.3-2-2.6-3-3.8l-0.2-0.2
		c-0.1-0.1-0.1-0.1-0.2-0.2c-0.4-0.4-0.8-0.9-1.1-1.4c-1.6-1.9-3.7-3.5-6.3-3c-1.3,0.3-2.4,1.2-3.1,2.3c-0.3,0.4-0.8,1.8-1.3,2
		c-0.4,0.1-1.2-1.1-1.4-1.4c-2-2.3-4-4.6-5.8-7c2.9-4.6,5.4-8.9,7.5-12.6c2.8-4.5,8.7-5.9,13.2-3.1c1.2,0.7,2.2,1.7,2.9,2.8
		c4.8,8.4,11.6,19.6,19.8,31.4C139.8,65.1,141,66.8,142.1,68.6L142.1,68.6z"/>
	<path class="st0" d="M82.6,98.8c-3.4,0-6.2,1.2-8.3,3.7c-5.7,6.6-3.8,20-3.7,20.6c0.2,1.1,1.3,1.8,2.4,1.6c1-0.2,1.7-1.2,1.6-2.2
		c-0.5-3.4-1-13,2.8-17.3c1.3-1.5,3-2.3,5.3-2.3c2.2,0,4,0.7,5.3,2.3c1.8,2.1,2.9,5.7,3.1,10.4c0.1,2.3,0,4.6-0.3,6.9
		c-0.2,1.1,0.6,2.1,1.7,2.3c0.1,0,0.2,0,0.3,0c1,0,1.9-0.7,2-1.7c0.1-0.6,2-14-3.7-20.6C88.8,100.1,86,98.8,82.6,98.8z"/>
	<path class="st0" d="M52,139.3c-1-0.4-2.1-0.4-3.1-0.1c-1,0.3-1.8,0.9-2.4,1.7c-0.5,0.9-0.8,2-0.9,3c-0.2,2,0,3.7,0.8,5
		c0.4,0.8,1.1,1.5,1.9,1.9c0.7,0.5,1.6,0.6,2.5,0.4c0.6-0.2,1.2-0.5,1.6-0.9c1.3-1.1,2.2-2.4,2.8-4c0.3-0.7,0.4-1.4,0.4-2.1
		c0-1.1-0.4-2.1-1-3C53.9,140.3,53,139.6,52,139.3z M46.5,144.7c0-1,0.3-1.7,0.9-2.2c-0.5,1.5-0.5,3.2,0.1,4.7
		C46.8,146.5,46.5,145.6,46.5,144.7z M53.3,145.1L53.3,145.1c-0.3,1.4-1.3,2.7-3,4.2c-0.2,0.1-0.4,0.2-0.6,0.1
		c-0.2-0.1-0.4-0.2-0.6-0.4c-0.3-0.3-0.4-0.8-0.4-1.2c-0.3-1.9-0.3-3.8,0-5.6c0-0.5,0.3-1,0.6-1.4c0.4-0.3,1-0.4,1.5-0.2
		c0.9,0.3,1.7,0.9,2,1.8C53.3,143.3,53.4,144.2,53.3,145.1z"/>
	<path class="st0" d="M73.7,141.3c-0.4-0.6-0.9-1.1-1.5-1.5c-0.6-0.4-1.3-0.5-1.9-0.5c-1.3,0.1-2.5,1.1-3.6,2.9
		c-0.3,0.8-0.6,1.6-0.8,2.4c-0.3,1.1-0.6,2.2-0.7,3.3c-0.1-0.3-0.1-0.8-0.2-1.7c-0.1-1.1-0.2-1.9-0.2-2.1c-0.2-1.8-0.5-2.9-0.8-3.2
		c-0.4-0.4-1-0.7-1.5-0.9c-0.6-0.2-1.2-0.2-1.7,0c-1.2,0.4-2.1,1.4-2.5,3c-0.2,0.5-0.4,1.4-0.7,2.5c-0.3,0.9-0.5,1.7-0.6,2.2
		c-0.4,1.6-0.6,3.2-0.5,4.8c0,0.6,0.1,1.2,0.3,1.7c0.1,0.3,0.3,0.5,0.6,0.6c0.2,0.2,0.5,0.2,0.8,0.2c0.7-0.1,1.1-0.9,1.2-2.3
		c0-1.5,0.2-3,0.7-4.4c0.8-2.7,1.2-4.2,1.3-4.3c0.7,0.6,1.2,1.7,1.7,3.3c0.1,0.4,0.4,1.9,0.8,4.4c0,0.2,0.1,0.5,0.2,0.7l0.4,0.6
		c0.1,0.2,0.3,0.4,0.4,0.6c0.1,0.1,0.3,0,0.7-0.1c0.4-0.2,1-1.6,1.6-4.4c0.8-3.3,1.4-5.4,1.8-6.3c0.2-0.3,0.4-0.6,0.7-0.9
		c0.2-0.2,0.6-0.3,0.9-0.1c1.2,4,1.8,8.2,1.8,12.4c0,0.2,0.1,0.5,0.3,0.6c0.2,0.2,0.4,0.3,0.7,0.4c0.5,0.2,1.1,0,1.5-0.4
		c0.6-0.5,0.9-1.5,0.8-3c0-2.2-0.2-4.4-0.5-6.6C74.6,143.4,74.2,142.1,73.7,141.3z"/>
	<path class="st0" d="M83.8,150.2c-0.7,0.1-1.3,0.1-2,0c-0.3-0.1-0.6-0.3-0.8-0.6c-0.2-0.3-0.2-0.6,0-0.9c0.2-0.3,0.2-0.7,0.1-1
		c-0.1-0.4-0.2-0.7-0.1-1.1c0.1-0.5,0.5-0.9,1-1c0.6-0.2,1.1-0.3,1.7-0.3c1.5-0.2,3-0.9,4-2.1c-0.3-0.5-0.7-0.9-1.3-1
		c-0.6-0.2-1.2-0.2-1.8,0c-0.2,0-0.7,0.2-1.7,0.5c-0.6,0.2-1.2,0.3-1.7,0.3c-0.4-0.9-0.6-1.9-0.5-2.8c0.1-0.5,0.3-1,0.6-1.3
		c0.3-0.4,0.7-0.6,1.2-0.7c1.5-0.1,3-0.5,4.3-1.1c0.3-0.1,0.5-0.3,0.7-0.5c0.2-0.2,0.2-0.6,0.1-0.8c-0.1-0.3-0.3-0.5-0.6-0.7
		c-0.6-0.2-1.2-0.2-1.8,0c-0.5,0.2-1.1,0.4-1.6,0.6c-0.5,0.2-1.1,0.4-1.6,0.6c-0.6,0.1-1.2,0.1-1.7-0.1c-0.5-0.2-1-0.5-1.2-1.1
		c-0.1-0.3-0.5-0.5-0.8-0.5c-0.4,0-0.7,0.2-1,0.4c-0.3,0.4-0.4,1.1-0.4,2c0.1,1.6,0.2,4.1,0.3,7.4l0.3,7.4c0,0.4,0.1,0.9,0.2,1.3
		c0.4,0.8,1.5,1.1,3.2,0.9l5.2-0.7c0.7-0.1,1.4-0.2,2.1-0.4c0.7-0.2,1.3-0.6,1.7-1.1C87.9,150.4,85.8,149.9,83.8,150.2z"/>
	<path class="st0" d="M110.5,134.6c-0.2-0.2-0.5-0.3-0.7-0.2c-0.3,0.1-0.4,0.3-0.4,0.5c-0.4,4.6-1.7,9.2-3.8,13.3
		c-0.2,0.1-0.5,0.1-0.7-0.2c-0.2-0.3-0.4-0.6-0.4-1c-1-4.3-1.8-7.5-2.3-9.6c-0.3-1.3-0.7-2-1.3-2.2c-0.4-0.1-0.8,0-1.1,0.2
		c-0.3,0.3-0.6,0.6-0.7,1c-0.2,0.9-0.2,1.8-0.1,2.6c0.4,2.8,0.9,5.7,1.6,8.4c0.6,2.6,1.4,4.5,2.4,5.5c0.6,0.7,1.5,1.2,2.4,1.3
		c0.9,0.2,1.8-0.1,2.4-0.8c0.6-0.6,1.1-1.8,1.4-3.6c1.2-6.1,1.8-10.7,1.6-13.9C111,135.6,110.8,135.1,110.5,134.6z M107.7,150.9
		L107.7,150.9c-0.6,1-1.3,1.5-2,1.5c1.5-1.1,2.5-2.7,2.8-4.5C108.6,149,108.3,150,107.7,150.9z"/>
	<path class="st0" d="M115.4,138.9c-0.2-0.3-0.4-0.5-0.7-0.6c-0.3-0.1-0.6-0.1-0.9,0c-0.6,0.3-0.8,1-0.8,2.3l0.1,4.7
		c0.1,2.1,0.1,3.7,0.2,4.7c0,0.7,0.1,1.4,0.4,2.1c0.2,0.3,0.4,0.5,0.8,0.7c0.3,0.1,0.6,0.1,0.9-0.1c0.3-0.2,0.5-0.8,0.6-1.6
		c0.3-3.4,0.2-6.8-0.1-10.2C115.9,140.2,115.7,139.5,115.4,138.9z"/>
	<path class="st0" d="M129.3,151.6c-1.8,0.8-3.7,1.3-5.6,1.4c-0.5,0-1,0-1.5-0.2c-0.5-0.1-0.8-0.5-0.8-1c0.2-5.4-0.4-10.8-1.6-16.1
		c-0.6,0.3-1,1-1,2.2c-0.1,4.3-0.2,8.7-0.3,13.1c0,1.5,0.2,2.5,0.7,3c0.5,0.5,1.3,0.9,2.4,1c2.1,0.3,4.3,0.2,6.4-0.4
		c1.1-0.3,1.8-0.7,2.1-1.3c0.2-0.4,0.2-0.8,0.1-1.2C130.1,151.8,129.7,151.6,129.3,151.6z"/>
	<path class="st0" d="M142.8,151.6c-1.8,0.8-3.7,1.3-5.6,1.4c-0.5,0-1,0-1.5-0.2c-0.5-0.1-0.8-0.5-0.8-1c0.2-5.4-0.4-10.8-1.6-16.1
		c-0.6,0.3-1,1-1,2.2c-0.1,4.3-0.2,8.7-0.3,13.1c0,1.5,0.2,2.5,0.7,3c0.5,0.5,1.3,0.9,2.4,1c2.1,0.3,4.3,0.2,6.4-0.4
		c1.1-0.3,1.8-0.7,2.1-1.3c0.2-0.4,0.2-0.8,0.1-1.2C143.5,151.8,143.1,151.6,142.8,151.6z"/>
	<path class="st0" d="M160.7,142.9c-0.5,0.1-0.9,0-1.3-0.2c-0.4-0.2-0.8-0.5-1-0.9c-0.3-0.4-0.4-0.8-0.4-1.3c0-1.3-0.4-2.6-1.1-3.6
		c-0.7-1.1-1.8-1.9-3-2.3c-0.7-0.3-1.4-0.3-2.1-0.1c-0.7,0.3-1.4,1.1-1.9,2.4c-1.9,4.8-3.2,9.8-3.7,15c-0.1,1.1,0.1,1.7,0.7,1.9
		c0.2,0.1,0.5,0,0.7-0.1c0.2-0.1,0.4-0.3,0.5-0.5c0.2-0.5,0.3-1,0.3-1.5c0.2-4.8,1.3-9.6,3.2-14.1c0.1-0.3,0.3-0.6,0.5-0.8
		c0.2-0.2,0.5-0.3,0.8-0.2c0.3,0.1,0.5,0.3,0.6,0.6c1,1.9,1.7,4,2,6.2l-1.1-0.1l-1.1-0.1c-0.6-0.1-1.2-0.1-1.8,0.1
		c-0.3,0.1-0.6,0.3-0.8,0.5c-0.2,0.2-0.3,0.5-0.4,0.8c0,0.5,0.3,1,0.9,1.2c0.5,0.3,1.1,0.4,1.7,0.3c0.6-0.1,1.2-0.1,1.8,0
		c0.6,0,1.1,0.3,1.4,0.7c0.3,0.5,0.4,1.1,0.4,1.6c0,0.2,0,0.6,0.1,1.1c0,0.5,0.1,0.9,0,1.1c0.1,1.2,0.3,2,0.6,2.5
		c0.3,0.4,0.6,0.6,1.1,0.8c0.4,0.1,0.9,0.1,1.2-0.2c0.5-0.4,0.6-1.1,0.4-2.2l-0.7-5.1c0-0.3,0.1-0.6,0.4-0.8l1-0.6
		c0.4-0.2,0.7-0.5,1-0.9c0.3-0.5,0.4-1.1,0.3-1.7C161.6,142.7,161.1,142.9,160.7,142.9z"/>
	<path class="st0" d="M186.5,150.2c-0.7,0.1-1.3,0.1-2,0c-0.3-0.1-0.6-0.3-0.8-0.6c-0.2-0.3-0.2-0.6,0-0.9c0.2-0.3,0.2-0.7,0.1-1
		c-0.1-0.4-0.2-0.7-0.1-1.1c0.1-0.5,0.5-0.9,1-1c0.6-0.2,1.1-0.3,1.7-0.3c1.6-0.2,3-1,4-2.2c-0.3-0.5-0.7-0.9-1.3-1
		c-0.6-0.2-1.2-0.2-1.8,0c-0.2,0-0.7,0.2-1.7,0.5c-0.6,0.2-1.2,0.3-1.7,0.3c-0.4-0.9-0.6-1.9-0.5-2.8c0.1-0.5,0.3-1,0.6-1.3
		c0.3-0.4,0.7-0.6,1.2-0.7c1.5-0.1,3-0.5,4.3-1.1c0.3-0.1,0.5-0.3,0.7-0.5c0.2-0.2,0.2-0.6,0.1-0.8c-0.1-0.3-0.3-0.5-0.6-0.7
		c-0.6-0.2-1.2-0.2-1.8,0c-0.5,0.2-1.1,0.4-1.6,0.6c-0.5,0.2-1.1,0.4-1.6,0.6c-0.6,0.1-1.2,0.1-1.7-0.1c-0.5-0.2-1-0.5-1.2-1.1
		c-0.1-0.3-0.5-0.5-0.8-0.5c-0.4,0-0.7,0.2-1,0.4c-0.3,0.4-0.4,1.1-0.4,2c0.1,1.6,0.2,4.1,0.3,7.4c0.1,3.3,0.2,5.7,0.3,7.4
		c0,0.4,0.1,0.9,0.2,1.3c0.4,0.8,1.5,1.1,3.2,0.9l5.2-0.6c0.7-0.1,1.4-0.2,2.1-0.4c0.7-0.2,1.3-0.6,1.7-1.1
		C190.6,150.4,188.5,149.9,186.5,150.2z"/>
	<path class="st0" d="M42.9,144.6c-0.6-0.9-1.3-1.6-2.1-2.3c-1.6-1.3-3.5-2.2-5.4-2.7c-0.3-0.1-0.6-0.4-0.6-0.7
		c-0.1-0.3-0.1-0.7,0-1c0.2-0.5,0.6-0.9,1.2-1c0.6-0.2,1.1,0,1.5,0.4c0.4,0.5,1.1,0.7,1.7,0.7c0.6,0,1.2-0.4,1.3-1
		c0.1-0.6-0.1-1.3-0.5-1.7c-0.4-0.5-1-0.9-1.6-0.9c-0.9,0-1.8,0-2.7,0.1c-0.9,0.1-1.7,0.3-2.4,0.8c-0.8,0.5-1.3,1.3-1.4,2.2
		c-0.2,1,0.1,2,0.8,2.7c0.5,0.6,1.2,1.1,1.9,1.4c0.1,0,0.3,0.1,1.1,0.5c0.4,0.2,0.8,0.4,1,0.5c0.8,0.4,1.4,1,2,1.7
		c0.6,0.6,1,1.4,1.3,2.2c0.3,0.7,0.3,1.5,0.2,2.2c-0.1,0.7-0.3,1.3-0.8,1.9c-0.5,0.6-1.1,1-1.8,1.4c-1.7,1-3.1,1.2-4.2,0.6
		c-1.1-0.6-1.9-1.8-2.3-3.6c-0.3-1.2-0.4-2.5-0.3-3.7v-0.3l-0.3-0.1c-0.5-0.1-1,0.1-1.2,0.6c-0.2,0.4-0.3,0.8-0.3,1.3
		c0,1.3,0.2,2.6,0.6,3.9c0.4,1.3,1.2,2.5,2.4,3.3c1,0.7,2.3,1.1,3.6,1.1c0.9,0,1.9-0.2,2.8-0.4c1.8-0.6,3.2-1.3,4.2-2.3
		c0.6-0.6,1-1.3,1.3-2.1c0.3-0.8,0.3-1.7,0.2-2.6C43.9,146.4,43.5,145.4,42.9,144.6z M42.2,149.9c-0.2,0.5-0.5,1-0.9,1.4
		c-0.2,0.3-0.6,0.5-1,0.4c0.6-0.6,1.1-1.2,1.5-2c0.4-1.2,0.3-2.7-0.3-4.7C42.5,146.8,42.7,148.5,42.2,149.9z"/>
	<path class="st0" d="M177.6,143.9c-0.4-0.2-0.8-0.2-1.2-0.2l-3.3,0.2l-3.3,0.2c-0.5,0-0.9,0.1-1.3,0.4c-0.3,0.3-0.3,0.7-0.2,1.1
		c0.1,0.4,0.4,0.7,0.8,0.8c0.4,0.2,1.2,0.2,2.4,0.1c1.1-0.1,1.8,0,2.3,0.4c-1,0.9-2.2,1.7-3.6,2.1c-1.2,0.4-2.1,0.4-2.9,0
		c-0.8-0.5-1.2-1.3-1.3-2.2c-0.1-1.3,0.2-2.5,0.9-3.6c0.7-1.1,1.5-2.2,2.4-3.1c0.3-0.3,0.6-0.5,1-0.7c0.4-0.1,0.7,0,0.9,0.3
		c0.2,0.4,0.7,0.7,1.2,0.6c0.5,0,0.9-0.3,1.1-0.8c0.2-0.4,0.1-1-0.1-1.4c-0.2-0.4-0.6-0.8-1.1-1c-0.9-0.3-2-0.3-2.9,0.1
		c-1.7,0.6-3.2,1.7-4.2,3.2c-1.1,1.4-1.7,3.1-1.7,4.9c-0.1,1.5,0.4,2.9,1.3,4.1c0.8,1.2,2.1,2,3.5,2.1c0.9,0,1.8-0.1,2.6-0.5
		c0.8-0.4,1.6-0.8,2.4-1.3c1.6-1.1,3-2.5,4-4.2c0.2-0.2,0.3-0.5,0.5-0.7c0.1-0.2,0.2-0.4,0.1-0.6
		C177.9,144.2,177.8,144.1,177.6,143.9z M164.8,145.7c0,0.8,0.1,1.5,0.4,2.2c-0.4-0.7-0.7-1.5-0.7-2.3c-0.1-0.9,0.2-1.9,0.7-2.6
		C165,143.9,164.8,144.8,164.8,145.7z"/>
</g>
</svg>
