<?xml version="1.0" encoding="utf-8"?>
<!-- Generator: Adobe Illustrator 21.1.0, SVG Export Plug-In . SVG Version: 6.00 Build 0)  -->
<svg version="1.1" id="圖層_3" xmlns="http://www.w3.org/2000/svg" xmlns:xlink="http://www.w3.org/1999/xlink" x="0px" y="0px"
	 viewBox="0 0 180 50" style="enable-background:new 0 0 180 50;" xml:space="preserve">
<style type="text/css">
	.st0{fill:#875855;}
</style>
<title>logo</title>
<g>
	<path class="st0" d="M87.7,38.6l-5.6,5.6c-0.8,0.8-0.8,2.1,0,2.9c0.8,0.8,2.1,0.8,2.9,0l5.6-5.6c0.8-0.8,0.8-2.1,0-2.9
		C89.8,37.8,88.5,37.8,87.7,38.6z"/>
	<path class="st0" d="M176.7,45.7c-0.2-0.1-11.7-8-22.2-20.7l5.6-5.6c0.8-0.8,0.8-2.1,0-2.9c-0.8-0.8-2.1-0.8-2.9,0l-5.3,5.3
		c-3-3.9-5.7-8.1-8-12.5h23.4V32c0,1,0.8,1.5,2,1.5s2-0.5,2-1.5V9.2h4.7c0.9,0,1.5-0.8,1.5-1.8s-0.5-1.8-1.5-1.8h-4.7V2
		c0-1-0.8-1.5-2-1.5s-2,0.5-2,1.5v3.6h-24.4V2c0-1-0.8-1.5-1.9-1.5c-1.2,0-1.9,0.5-1.9,1.5v3.6h-7.3c-0.9,0-1.5,0.7-1.5,1.8
		c0,1,0.5,1.8,1.5,1.8h6.3c-4.2,8.2-10,15.5-15.5,21.3c-0.3-0.4-0.7-0.6-1.1-0.5h-20.7v-4h7.8c2.9,0,4.3-1.1,4.3-4V9.2h8.7
		c0.9,0,1.5-0.7,1.5-1.8c0-1.1-0.5-1.8-1.5-1.8h-8.7V2c0-1-0.8-1.5-1.9-1.5C109.7,0.5,109,1,109,2v3.7H89.4V2c0-1-0.8-1.5-1.9-1.5
		c-1.1,0-1.9,0.5-1.9,1.5v3.7h-8.7c-0.9,0-1.5,0.7-1.5,1.8c0,1.1,0.5,1.8,1.5,1.8h8.7V22c0,3,1.4,4,4.3,4h7v4H77
		c-0.9,0-1.5,0.7-1.5,1.8c0,1.1,0.5,1.8,1.5,1.8h19.9V48c0,0.9,0.8,1.5,1.9,1.5c1.3,0,1.9-0.6,1.9-1.5v-13v-1.4h18.9
		c-7.7,7.6-14.2,12.1-14.4,12.2c-0.9,0.6-1.2,1.9-0.6,2.8c0.3,0.6,1,0.9,1.6,0.9c0.4,0,0.7-0.1,1.1-0.3c0.9-0.6,19.9-13.6,31.7-33.6
		v0.3l0,0v6.3c-9.7,14.3-21.4,23.4-21.6,23.6c-0.8,0.7-1,1.9-0.3,2.7c0.7,0.8,1.9,1,2.7,0.3c0.6-0.5,10.1-7.9,19.2-19.9V48
		c0,0.9,0.7,1.5,1.9,1.5c1.2,0,1.9-0.6,1.9-1.5V28.8c9.1,12.1,18.6,19.5,19.2,19.9c0.8,0.7,2.1,0.5,2.7-0.3c0.7-0.8,0.5-2.1-0.3-2.7
		c-0.2-0.1-11.9-9.2-21.6-23.6v-6.5c11.8,20,30.8,33,31.7,33.6c0.3,0.2,0.7,0.3,1.1,0.3c0.7,0,1.3-0.4,1.6-0.9
		C177.9,47.6,177.6,46.4,176.7,45.7z M89.4,9.2H109v4.8H89.4V9.2z M91,22.7c-1.1,0-1.5-0.3-1.5-1.4v-4H109v4c0,1.1-0.5,1.4-1.5,1.4
		H91z"/>
	<path class="st0" d="M72.7,36.7C72.7,36.7,72.6,36.7,72.7,36.7L72.7,36.7c-7.2-3-15.3-10.7-23.3-22.2c-3-4.2-5.4-8.3-7.2-11.3
		c-1.4-2.5-4.4-3.3-6.9-2c-0.8,0.5-1.5,1.1-2,1.9c-1.5,2.7-3.6,6.1-6.1,9.7c-0.7-1.1-1.1-1.8-1.2-1.8c-0.2-0.3-0.7-0.4-1.1-0.2
		c-0.3,0.2-0.4,0.6-0.2,1c0,0,0.6,0.9,1.5,2.4l-0.2,0.3c-5.3,7.7-10.7,13.6-15.8,17.7l-0.9-1c-0.3-0.3-0.7-0.4-1.1-0.1
		C8,31.2,8,31.7,8.3,32c0,0,0,0,0.1,0.1l0.9,1c-1.9,1.5-4.1,2.7-6.3,3.7c-0.4,0.1-0.6,0.6-0.5,1c0.1,0.4,0.6,0.6,1,0.5
		c0,0,0,0,0.1,0c2.4-1,4.6-2.3,6.7-3.9l0.5,0.5c0.3,0.3,0.7,0.4,1.1,0.1s0.4-0.7,0.1-1.1c0,0,0,0-0.1-0.1l-0.4-0.4
		c4.8-3.8,9.6-9.1,14.7-16.1c-0.4,1.5-0.8,2.9-1.5,4.3c-1.7,4-5.5,9.8-13.3,15.3c-0.4,0.2-0.5,0.7-0.2,1c0.2,0.4,0.7,0.5,1,0.2
		c0,0,0,0,0.1,0c8.2-5.7,12.1-11.9,13.9-16c0.5-1.1,0.9-2.3,1.3-3.5c0.3,1.2,0.8,2.3,1.3,3.5c1.8,4.2,5.7,10.3,13.9,16
		c0.3,0.3,0.8,0.2,1.1-0.1c0.3-0.3,0.2-0.8-0.1-1.1c0,0,0,0-0.1,0C35.4,31.3,31.7,25.5,30,21.5c-0.6-1.4-1.1-2.8-1.5-4.3
		c1.1,1.6,2.5,3.4,4.1,5.3c2.7,3.3,6.5,7.3,10.7,10.7l-0.4,0.5c-0.3,0.3-0.3,0.8,0,1.1c0.3,0.3,0.8,0.3,1.1,0c0,0,0,0,0.1-0.1
		l0.5-0.6c2.1,1.6,4.4,2.9,6.8,4c0.4,0.1,0.8-0.1,1-0.4c0.1-0.4,0-0.8-0.4-0.9c-2.3-1-4.4-2.3-6.4-3.7l0.8-0.9
		c0.3-0.3,0.3-0.8,0-1.1c-0.3-0.3-0.8-0.3-1.1,0c0,0,0,0-0.1,0.1l-0.9,1c-7.2-5.6-13.1-13.6-16.1-17.9c1.1-1.6,2.1-3.1,3-4.5
		c0.4,0.6,0.9,1.1,1.4,1.7c0.6,0.7,1.2,1.8,2.2,1.6c0.4-0.1,0.8-0.3,1.1-0.7c0.3-0.4,0.4-1,1-0.9c0.5,0.1,0.9,0.7,1.1,1.1l0.3,0.4
		c0.5,0.7,1.1,1.3,1.6,2c0.5,0.6,1.2,1.8,2.2,1.6c0.4-0.1,0.8-0.3,1.1-0.7c0.3-0.4,0.4-1,1-0.9c0.5,0.1,0.9,0.7,1.1,1.1l0.9,1.1
		c0.2,0.3,0.4,0.5,0.6,0.8c0.6,0.7,1.2,1.8,2.2,1.6c0.4-0.1,0.8-0.3,1.1-0.7c0.1-0.1,0.1-0.2,0.2-0.2C57.8,28.6,65.1,35.2,72,38.1
		c0.4,0.2,0.8,0,1-0.4C73.2,37.3,73.1,36.9,72.7,36.7z M49.5,17.3c-0.1,0.2-0.3,0.7-0.5,0.7c-0.1,0-0.5-0.4-0.5-0.5
		c-0.4-0.5-0.9-1-1.3-1.5c-0.4-0.5-0.8-1-1.1-1.4c-0.6-0.7-1.4-1.3-2.3-1.1c-0.5,0.1-0.9,0.4-1.1,0.9C42.4,14.5,42.2,15,42,15
		c-0.1,0-0.5-0.4-0.5-0.5c-0.4-0.4-0.8-0.9-1.2-1.4c-0.4-0.5-0.8-0.9-1.1-1.4l-0.1-0.1c0,0,0-0.1-0.1-0.1c-0.1-0.2-0.3-0.3-0.4-0.5
		c-0.6-0.7-1.4-1.3-2.3-1.1c-0.5,0.1-0.9,0.4-1.1,0.9c-0.1,0.2-0.3,0.7-0.5,0.7c-0.1,0-0.5-0.4-0.5-0.5c-0.8-0.8-1.5-1.7-2.2-2.6
		c1.1-1.7,2-3.3,2.8-4.7c1-1.7,3.2-2.2,4.9-1.1c0.4,0.3,0.8,0.6,1.1,1.1c1.8,3.1,4.3,7.3,7.4,11.7C48.6,16,49,16.6,49.5,17.3
		L49.5,17.3z"/>
	<path class="st0" d="M27.3,28.5c-1.2,0-2.3,0.5-3.1,1.4c-2.1,2.5-1.4,7.5-1.4,7.7c0.1,0.4,0.5,0.7,0.9,0.6c0.4-0.1,0.6-0.4,0.6-0.8
		c-0.2-1.2-0.4-4.8,1-6.5c1-1.1,2.7-1.1,3.8-0.1c0,0,0.1,0.1,0.1,0.1c0.7,0.8,1.1,2.1,1.1,3.9c0,0.9,0,1.7-0.1,2.6
		c-0.1,0.4,0.2,0.8,0.6,0.9c0,0,0.1,0,0.1,0c0.4,0,0.7-0.3,0.7-0.6c0-0.2,0.7-5.2-1.4-7.7C29.6,29,28.5,28.5,27.3,28.5z"/>
	<path class="st0" d="M15.9,43.6c-0.4-0.1-0.8-0.1-1.2,0c-0.4,0.1-0.7,0.3-0.9,0.6c-0.2,0.3-0.3,0.7-0.3,1.1c-0.1,0.6,0,1.3,0.3,1.8
		c0.2,0.3,0.4,0.5,0.7,0.7c0.3,0.2,0.6,0.2,0.9,0.2c0.2-0.1,0.4-0.2,0.6-0.3c0.5-0.4,0.8-0.9,1.1-1.5c0.1-0.3,0.2-0.5,0.2-0.8
		c0-0.4-0.1-0.8-0.4-1.1C16.6,44,16.3,43.7,15.9,43.6z M13.9,45.6c0-0.3,0.1-0.6,0.3-0.8c-0.2,0.6-0.2,1.2,0,1.7
		C14,46.3,13.8,45.9,13.9,45.6z M16.4,45.7L16.4,45.7c-0.1,0.5-0.5,1-1.1,1.5c-0.1,0-0.1,0.1-0.2,0c-0.1,0-0.2-0.1-0.2-0.1
		c-0.1-0.1-0.1-0.3-0.2-0.4c-0.1-0.7-0.1-1.4,0-2.1c0-0.2,0.1-0.4,0.2-0.5c0.2-0.1,0.4-0.1,0.6-0.1c0.3,0.1,0.6,0.3,0.8,0.7
		C16.4,45.1,16.4,45.4,16.4,45.7z"/>
	<path class="st0" d="M24,44.3c-0.1-0.2-0.3-0.4-0.5-0.5c-0.2-0.1-0.5-0.2-0.7-0.2c-0.5,0-0.9,0.4-1.4,1.1c-0.1,0.3-0.2,0.6-0.3,0.9
		c-0.1,0.4-0.2,0.8-0.3,1.2c0-0.1,0-0.3-0.1-0.6c0-0.4-0.1-0.7-0.1-0.8c-0.1-0.7-0.2-1.1-0.3-1.2c-0.2-0.2-0.4-0.3-0.6-0.3
		c-0.2-0.1-0.4-0.1-0.6,0c-0.5,0.2-0.8,0.6-0.9,1.1c-0.1,0.2-0.1,0.5-0.3,0.9c-0.1,0.4-0.2,0.6-0.2,0.8c-0.1,0.6-0.2,1.2-0.2,1.8
		c0,0.2,0,0.4,0.1,0.6c0,0.1,0.1,0.2,0.2,0.2c0.1,0.1,0.2,0.1,0.3,0.1c0.3-0.1,0.4-0.3,0.4-0.9c0-0.6,0.1-1.1,0.2-1.6
		c0.3-1,0.5-1.5,0.5-1.6c0.3,0.4,0.5,0.8,0.6,1.2c0,0.1,0.1,0.7,0.3,1.6c0,0.1,0,0.2,0.1,0.3l0.2,0.2c0,0.1,0.1,0.2,0.2,0.2
		c0,0,0.1,0,0.3,0c0.2-0.1,0.4-0.6,0.6-1.6c0.2-0.8,0.4-1.6,0.7-2.3c0.1-0.1,0.2-0.2,0.3-0.3c0.1-0.1,0.2-0.1,0.3,0
		c0.4,1.5,0.6,3.1,0.6,4.6c0,0.1,0,0.2,0.1,0.2c0.1,0.1,0.2,0.1,0.2,0.1c0.2,0.1,0.4,0,0.6-0.1c0.2-0.2,0.3-0.6,0.3-1.1
		c0-0.8-0.1-1.6-0.2-2.5C24.4,45.3,24.2,44.8,24,44.3z"/>
	<path class="st0" d="M27.7,47.6c-0.2,0-0.5,0-0.7,0c-0.1,0-0.2-0.1-0.3-0.2c-0.1-0.1-0.1-0.2,0-0.3c0.1-0.1,0.1-0.3,0-0.4
		c0-0.1-0.1-0.3-0.1-0.4c0-0.2,0.2-0.3,0.4-0.4c0.2-0.1,0.4-0.1,0.6-0.1c0.6-0.1,1.1-0.4,1.5-0.8c-0.1-0.2-0.3-0.3-0.5-0.4
		c-0.2-0.1-0.5-0.1-0.7,0c-0.1,0-0.3,0.1-0.6,0.2c-0.2,0.1-0.4,0.1-0.6,0.1c-0.1-0.3-0.2-0.7-0.2-1.1c0-0.2,0.1-0.4,0.2-0.5
		c0.1-0.1,0.3-0.2,0.5-0.2c0.6,0,1.1-0.2,1.6-0.4c0.1,0,0.2-0.1,0.3-0.2c0.1-0.1,0.1-0.2,0-0.3c0-0.1-0.1-0.2-0.2-0.2
		c-0.2-0.1-0.5-0.1-0.7,0c-0.2,0.1-0.4,0.1-0.6,0.2c-0.2,0.1-0.4,0.2-0.6,0.2c-0.2,0-0.4,0-0.6,0c-0.2-0.1-0.4-0.2-0.4-0.4
		c-0.1-0.1-0.2-0.2-0.3-0.2c-0.1,0-0.3,0.1-0.4,0.2c-0.1,0.2-0.2,0.5-0.2,0.8c0,0.6,0.1,1.5,0.1,2.7l0.1,2.7c0,0.2,0,0.3,0.1,0.5
		c0.2,0.3,0.6,0.4,1.2,0.3l1.9-0.2c0.3,0,0.5-0.1,0.8-0.2c0.2-0.1,0.5-0.2,0.6-0.4C29.3,47.7,28.5,47.5,27.7,47.6z"/>
	<path class="st0" d="M37.7,41.8c-0.1-0.1-0.2-0.1-0.3-0.1c-0.1,0-0.2,0.1-0.2,0.2c-0.1,1.7-0.6,3.4-1.4,5c-0.1,0.1-0.2,0-0.3-0.1
		c-0.1-0.1-0.1-0.2-0.2-0.4c-0.4-1.6-0.7-2.8-0.8-3.6c-0.1-0.5-0.3-0.8-0.5-0.8c-0.1,0-0.3,0-0.4,0.1c-0.1,0.1-0.2,0.2-0.3,0.4
		c-0.1,0.3-0.1,0.7,0,1c0.1,1.1,0.3,2.1,0.6,3.1c0.2,1,0.5,1.7,0.9,2.1c0.2,0.3,0.6,0.4,0.9,0.5c0.3,0.1,0.7,0,0.9-0.3
		c0.2-0.2,0.4-0.7,0.5-1.3c0.5-2.3,0.7-4,0.6-5.2C37.8,42.2,37.8,42,37.7,41.8z M36.6,47.9L36.6,47.9c-0.2,0.4-0.5,0.5-0.7,0.5
		c0.5-0.4,0.9-1,1.1-1.7C37,47.2,36.9,47.6,36.6,47.9z"/>
	<path class="st0" d="M39.5,43.4c-0.1-0.1-0.2-0.2-0.3-0.2c-0.1-0.1-0.2-0.1-0.3,0c-0.2,0.1-0.3,0.4-0.3,0.9l0.1,1.8
		c0,0.8,0,1.4,0.1,1.8c0,0.3,0,0.5,0.2,0.8c0.1,0.1,0.2,0.2,0.3,0.2c0.1,0.1,0.2,0,0.3,0c0.2-0.2,0.2-0.4,0.2-0.6
		c0.1-1.3,0.1-2.5,0-3.8C39.7,43.9,39.6,43.7,39.5,43.4z"/>
	<path class="st0" d="M44.7,48.2c-0.7,0.3-1.4,0.5-2.1,0.5c-0.2,0-0.4,0-0.6-0.1c-0.2,0-0.3-0.2-0.3-0.4c0.1-2-0.1-4-0.6-6
		c-0.2,0.1-0.4,0.4-0.4,0.8c0,1.6-0.1,3.2-0.1,4.9c0,0.5,0.1,0.9,0.2,1.1c0.2,0.2,0.6,0.4,0.9,0.4c0.8,0.1,1.6,0.1,2.4-0.1
		c0.3-0.1,0.6-0.2,0.8-0.5c0.1-0.1,0.1-0.3,0-0.4C45,48.2,44.8,48.1,44.7,48.2z"/>
	<path class="st0" d="M49.7,48.2c-0.7,0.3-1.4,0.5-2.1,0.5c-0.2,0-0.4,0-0.6-0.1c-0.2,0-0.3-0.2-0.3-0.4c0.1-2-0.1-4-0.6-6
		c-0.2,0.1-0.4,0.4-0.4,0.8c0,1.6-0.1,3.2-0.1,4.9c0,0.5,0.1,0.9,0.2,1.1c0.2,0.2,0.6,0.4,0.9,0.4c0.8,0.1,1.6,0.1,2.4-0.1
		c0.3-0.1,0.6-0.2,0.8-0.5c0.1-0.1,0.1-0.3,0-0.4C50,48.2,49.8,48.1,49.7,48.2z"/>
	<path class="st0" d="M56.4,44.9c-0.2,0-0.3,0-0.5-0.1c-0.2-0.1-0.3-0.2-0.4-0.3c-0.1-0.1-0.1-0.3-0.1-0.5c0-0.5-0.1-1-0.4-1.3
		c-0.3-0.4-0.7-0.7-1.1-0.9c-0.3-0.1-0.5-0.1-0.8,0c-0.3,0.1-0.5,0.4-0.7,0.9c-0.7,1.8-1.2,3.7-1.4,5.6c0,0.4,0.1,0.6,0.3,0.7
		c0.1,0,0.2,0,0.3,0c0.1,0,0.2-0.1,0.2-0.2c0.1-0.2,0.1-0.4,0.1-0.5c0.1-1.8,0.5-3.6,1.2-5.2c0-0.1,0.1-0.2,0.2-0.3
		c0.1-0.1,0.2-0.1,0.3-0.1c0.1,0,0.2,0.1,0.2,0.2c0.4,0.7,0.6,1.5,0.7,2.3l-0.4,0l-0.4,0c-0.2,0-0.5,0-0.7,0c-0.1,0-0.2,0.1-0.3,0.2
		c-0.1,0.1-0.1,0.2-0.1,0.3c0,0.2,0.1,0.4,0.3,0.5c0.2,0.1,0.4,0.1,0.6,0.1c0.2,0,0.4,0,0.7,0c0.2,0,0.4,0.1,0.5,0.3
		c0.1,0.2,0.2,0.4,0.2,0.6c0,0.1,0,0.2,0,0.4c0,0.2,0,0.3,0,0.4c0,0.3,0.1,0.6,0.2,0.9c0.1,0.1,0.2,0.2,0.4,0.3
		c0.2,0.1,0.3,0,0.4-0.1c0.2-0.1,0.2-0.4,0.2-0.8l-0.3-1.9c0-0.1,0-0.2,0.1-0.3l0.4-0.2c0.1-0.1,0.3-0.2,0.4-0.3
		c0.1-0.2,0.2-0.4,0.1-0.6C56.7,44.9,56.5,44.9,56.4,44.9z"/>
	<path class="st0" d="M66,47.6c-0.2,0-0.5,0-0.7,0c-0.1,0-0.2-0.1-0.3-0.2c-0.1-0.1-0.1-0.2,0-0.3c0.1-0.1,0.1-0.3,0-0.4
		c0-0.1-0.1-0.3-0.1-0.4c0-0.2,0.2-0.3,0.4-0.4c0.2-0.1,0.4-0.1,0.6-0.1c0.6-0.1,1.1-0.4,1.5-0.8c-0.1-0.2-0.3-0.3-0.5-0.4
		c-0.2-0.1-0.5-0.1-0.7,0c-0.1,0-0.3,0.1-0.6,0.2c-0.2,0.1-0.4,0.1-0.6,0.1c-0.1-0.3-0.2-0.7-0.2-1.1c0-0.2,0.1-0.4,0.2-0.5
		c0.1-0.1,0.3-0.2,0.5-0.2c0.6,0,1.1-0.2,1.6-0.4c0.1,0,0.2-0.1,0.3-0.2c0.1-0.1,0.1-0.2,0-0.3c0-0.1-0.1-0.2-0.2-0.2
		c-0.2-0.1-0.5-0.1-0.7,0c-0.2,0.1-0.4,0.1-0.6,0.2c-0.2,0.1-0.4,0.2-0.6,0.2c-0.2,0-0.4,0-0.6,0c-0.2-0.1-0.4-0.2-0.4-0.4
		c-0.1-0.1-0.2-0.2-0.3-0.2c-0.1,0-0.3,0.1-0.4,0.2c-0.1,0.2-0.2,0.5-0.2,0.8c0,0.6,0.1,1.5,0.1,2.7l0.1,2.7c0,0.2,0,0.3,0.1,0.5
		c0.2,0.3,0.6,0.4,1.2,0.3l1.9-0.2c0.3,0,0.5-0.1,0.8-0.2c0.2-0.1,0.5-0.2,0.6-0.4C67.5,47.7,66.7,47.5,66,47.6z"/>
	<path class="st0" d="M12.5,45.6c-0.2-0.3-0.5-0.6-0.8-0.9c-0.6-0.5-1.3-0.8-2-1c-0.1,0-0.2-0.1-0.2-0.3c0-0.1,0-0.3,0-0.4
		c0.1-0.2,0.2-0.3,0.4-0.4c0.2-0.1,0.4,0,0.6,0.2c0.2,0.2,0.4,0.3,0.6,0.2c0.2,0,0.4-0.1,0.5-0.4c0.1-0.2,0-0.5-0.2-0.6
		c-0.1-0.2-0.4-0.3-0.6-0.3c-0.3,0-0.7,0-1,0c-0.3,0-0.6,0.1-0.9,0.3c-0.3,0.2-0.5,0.5-0.5,0.8c-0.1,0.4,0,0.7,0.3,1
		c0.2,0.2,0.4,0.4,0.7,0.5c0,0,0.1,0.1,0.4,0.2c0.2,0.1,0.3,0.1,0.4,0.2c0.3,0.2,0.5,0.4,0.8,0.6c0.2,0.2,0.4,0.5,0.5,0.8
		c0.1,0.3,0.1,0.6,0.1,0.8c0,0.3-0.1,0.5-0.3,0.7c-0.2,0.2-0.4,0.4-0.7,0.5c-0.6,0.4-1.1,0.4-1.6,0.2c-0.4-0.2-0.7-0.7-0.8-1.3
		C8,46.7,8,46.2,8,45.7v-0.1l-0.1,0c-0.2,0-0.4,0-0.4,0.2c-0.1,0.1-0.1,0.3-0.1,0.5c0,0.5,0.1,1,0.2,1.4c0.2,0.5,0.5,0.9,0.9,1.2
		c0.4,0.3,0.8,0.4,1.3,0.4c0.4,0,0.7-0.1,1-0.2c0.6-0.2,1.1-0.5,1.6-0.9c0.2-0.2,0.4-0.5,0.5-0.8c0.1-0.3,0.1-0.6,0.1-1
		C12.9,46.2,12.7,45.9,12.5,45.6z M12.2,47.5c-0.1,0.2-0.2,0.4-0.3,0.5c-0.1,0.1-0.2,0.2-0.4,0.2c0.2-0.2,0.4-0.5,0.5-0.7
		c0.2-0.4,0.1-1-0.1-1.8C12.3,46.4,12.4,47,12.2,47.5L12.2,47.5z"/>
	<path class="st0" d="M62.7,45.3c-0.1-0.1-0.3-0.1-0.4-0.1L61,45.3l-1.2,0.1c-0.2,0-0.3,0-0.5,0.1c-0.1,0.1-0.1,0.3-0.1,0.4
		c0.1,0.1,0.2,0.3,0.3,0.3c0.3,0.1,0.6,0.1,0.9,0c0.3-0.1,0.6,0,0.9,0.2c-0.4,0.3-0.8,0.6-1.3,0.8c-0.3,0.2-0.7,0.2-1.1,0
		c-0.3-0.2-0.5-0.5-0.5-0.8c0-0.5,0.1-0.9,0.3-1.3c0.3-0.4,0.6-0.8,0.9-1.2c0.1-0.1,0.2-0.2,0.4-0.2c0.2,0,0.3,0,0.3,0.1
		c0.1,0.2,0.3,0.3,0.4,0.2c0.2,0,0.3-0.1,0.4-0.3c0.1-0.2,0-0.4,0-0.5c-0.1-0.2-0.2-0.3-0.4-0.4c-0.3-0.1-0.7-0.1-1.1,0
		C59,43,58.5,43.5,58.1,44c-0.4,0.5-0.6,1.2-0.6,1.8c0,0.6,0.1,1.1,0.5,1.5c0.3,0.5,0.8,0.7,1.3,0.8c0.3,0,0.7,0,1-0.2
		c0.3-0.1,0.6-0.3,0.9-0.5c0.6-0.4,1.1-0.9,1.5-1.6c0.1-0.1,0.1-0.2,0.2-0.3c0-0.1,0.1-0.1,0-0.2C62.8,45.4,62.7,45.3,62.7,45.3z
		 M58,46.8L58,46.8c-0.2-0.3-0.3-0.6-0.3-0.9c0-0.3,0.1-0.7,0.3-1c-0.1,0.3-0.1,0.7-0.1,1C57.9,46.3,57.9,46.6,58,46.8z"/>
</g>
</svg>
